<svg width="281" height="291" viewBox="0 0 281 291" fill="none" xmlns="http://www.w3.org/2000/svg">
<g clip-path="url(#clip0_20_3018)">
<rect width="280.889" height="290.667" fill="white"/>
<path d="M19.2773 17.3774H21.9507V32.6094H19.2773V17.3774Z" fill="#181817"/>
<path d="M24.4092 17.3774H36.7692V19.6827H31.9145V32.6094H29.2425V19.6827H24.4092V17.3774Z" fill="#181817"/>
<path d="M38.6084 25.6546H44.8311V27.96H38.6084V25.6546Z" fill="#181817"/>
<mask id="mask0_20_3018" style="mask-type:luminance" maskUnits="userSpaceOnUse" x="0" y="0" width="281" height="291">
<path d="M0 0.000342846H280.889V290.667H0V0.000342846Z" fill="white"/>
</mask>
<g mask="url(#mask0_20_3018)">
<path d="M50.8179 30.4334H55.5432C56.3565 30.4334 56.9872 30.224 57.4352 29.804C57.8845 29.3854 58.1099 28.792 58.1099 28.0227C58.1099 27.2694 57.8845 26.6894 57.4352 26.284C56.9872 25.8787 56.3565 25.676 55.5432 25.676H50.8179V30.4334ZM50.8179 23.756H55.1792C55.8219 23.756 56.3565 23.5747 56.7845 23.212C57.2112 22.8494 57.4259 22.3267 57.4259 21.644C57.4259 20.876 57.2325 20.336 56.8472 20.0227C56.4632 19.7107 55.9072 19.5534 55.1792 19.5534H50.8179V23.756ZM48.1445 17.3774H55.5645C56.9339 17.3774 58.0312 17.6894 58.8579 18.316C59.6845 18.9427 60.0979 19.888 60.0979 21.1534C60.0979 21.9214 59.9085 22.5787 59.5312 23.128C59.1539 23.6747 58.6152 24.0974 57.9165 24.396V24.4387C58.8579 24.6374 59.5699 25.0827 60.0552 25.772C60.5405 26.4614 60.7832 27.3267 60.7832 28.364C60.7832 28.9614 60.6752 29.5187 60.4619 30.0387C60.2472 30.5587 59.9125 31.0067 59.4565 31.3827C59.0005 31.76 58.4165 32.0587 57.7032 32.2787C56.9899 32.5 56.1419 32.6094 55.1579 32.6094H48.1445V17.3774Z" fill="#181817"/>
<path d="M63.8398 17.3774H66.5132V32.6094H63.8398V17.3774Z" fill="#181817"/>
<path d="M76.9266 19.1913C76.1146 19.1913 75.4119 19.354 74.8199 19.682C74.2293 20.0087 73.7479 20.446 73.3773 20.994C73.0066 21.542 72.7319 22.1633 72.5533 22.8607C72.3746 23.5567 72.2866 24.2687 72.2866 24.994C72.2866 25.7193 72.3746 26.4313 72.5533 27.1273C72.7319 27.8247 73.0066 28.446 73.3773 28.994C73.7479 29.542 74.2293 29.9793 74.8199 30.306C75.4119 30.6327 76.1146 30.7967 76.9266 30.7967C77.7386 30.7967 78.4413 30.6327 79.0333 30.306C79.6239 29.9793 80.1053 29.542 80.4759 28.994C80.8466 28.446 81.1213 27.8247 81.2999 27.1273C81.4773 26.4313 81.5666 25.7193 81.5666 24.994C81.5666 24.2687 81.4773 23.5567 81.2999 22.8607C81.1213 22.1633 80.8466 21.542 80.4759 20.994C80.1053 20.446 79.6239 20.0087 79.0333 19.682C78.4413 19.354 77.7386 19.1913 76.9266 19.1913ZM76.9266 17.0153C78.0666 17.0153 79.0906 17.2273 79.9946 17.6553C80.8999 18.082 81.6666 18.658 82.2933 19.3833C82.9213 20.1087 83.4013 20.954 83.7373 21.922C84.0719 22.8887 84.2399 23.9127 84.2399 24.994C84.2399 26.0887 84.0719 27.1193 83.7373 28.0873C83.4013 29.054 82.9213 29.8993 82.2933 30.626C81.6666 31.3513 80.8999 31.9233 79.9946 32.342C79.0906 32.762 78.0666 32.9727 76.9266 32.9727C75.7866 32.9727 74.7626 32.762 73.8586 32.342C72.9533 31.9233 72.1866 31.3513 71.5599 30.626C70.9319 29.8993 70.4506 29.054 70.1159 28.0873C69.7813 27.1193 69.6133 26.0887 69.6133 24.994C69.6133 23.9127 69.7813 22.8887 70.1159 21.922C70.4506 20.954 70.9319 20.1087 71.5599 19.3833C72.1866 18.658 72.9533 18.082 73.8586 17.6553C74.7626 17.2273 75.7866 17.0153 76.9266 17.0153Z" fill="#181817"/>
<path d="M86.7412 25.6546H92.9639V27.96H86.7412V25.6546Z" fill="#181817"/>
<path d="M100.598 30.8812C101.126 30.8812 101.567 30.7292 101.923 30.4225C102.279 30.1172 102.562 29.7038 102.768 29.1865C102.975 28.6665 103.122 28.0585 103.207 27.3612C103.292 26.6652 103.335 25.9252 103.335 25.1425C103.335 24.3598 103.292 23.6252 103.207 22.9345C103.122 22.2438 102.975 21.6358 102.768 21.1105C102.562 20.5838 102.279 20.1692 101.923 19.8625C101.567 19.5572 101.126 19.4052 100.598 19.4052C100.055 19.4052 99.6095 19.5572 99.2615 19.8625C98.9109 20.1692 98.6335 20.5838 98.4269 21.1105C98.2202 21.6358 98.0735 22.2438 97.9882 22.9345C97.9029 23.6252 97.8602 24.3598 97.8602 25.1425C97.8602 25.9252 97.9029 26.6652 97.9882 27.3612C98.0735 28.0585 98.2202 28.6665 98.4269 29.1865C98.6335 29.7038 98.9109 30.1172 99.2615 30.4225C99.6095 30.7292 100.055 30.8812 100.598 30.8812ZM100.598 17.3772C101.667 17.3772 102.54 17.6225 103.216 18.1132C103.894 18.6038 104.422 19.2305 104.799 19.9905C105.178 20.7518 105.434 21.5865 105.57 22.4972C105.704 23.4078 105.772 24.2892 105.772 25.1425C105.772 25.9958 105.704 26.8785 105.57 27.7878C105.434 28.6985 105.178 29.5332 104.799 30.2958C104.422 31.0558 103.894 31.6825 103.216 32.1718C102.54 32.6625 101.667 32.9092 100.598 32.9092C99.5282 32.9092 98.6549 32.6625 97.9775 32.1718C97.3002 31.6825 96.7735 31.0558 96.3962 30.2958C96.0175 29.5332 95.7615 28.6985 95.6255 27.7878C95.4895 26.8785 95.4229 25.9958 95.4229 25.1425C95.4229 24.2892 95.4895 23.4078 95.6255 22.4972C95.7615 21.5865 96.0175 20.7518 96.3962 19.9905C96.7735 19.2305 97.3002 18.6038 97.9775 18.1132C98.6549 17.6225 99.5282 17.3772 100.598 17.3772Z" fill="#181817"/>
<path d="M113.129 30.8812C113.657 30.8812 114.098 30.7292 114.454 30.4225C114.81 30.1172 115.093 29.7038 115.299 29.1865C115.506 28.6665 115.653 28.0585 115.738 27.3612C115.823 26.6652 115.866 25.9252 115.866 25.1425C115.866 24.3598 115.823 23.6252 115.738 22.9345C115.653 22.2438 115.506 21.6358 115.299 21.1105C115.093 20.5838 114.81 20.1692 114.454 19.8625C114.098 19.5572 113.657 19.4052 113.129 19.4052C112.586 19.4052 112.141 19.5572 111.793 19.8625C111.442 20.1692 111.165 20.5838 110.958 21.1105C110.751 21.6358 110.605 22.2438 110.519 22.9345C110.434 23.6252 110.391 24.3598 110.391 25.1425C110.391 25.9252 110.434 26.6652 110.519 27.3612C110.605 28.0585 110.751 28.6665 110.958 29.1865C111.165 29.7038 111.442 30.1172 111.793 30.4225C112.141 30.7292 112.586 30.8812 113.129 30.8812ZM113.129 17.3772C114.198 17.3772 115.071 17.6225 115.747 18.1132C116.425 18.6038 116.953 19.2305 117.33 19.9905C117.709 20.7518 117.965 21.5865 118.101 22.4972C118.235 23.4078 118.303 24.2892 118.303 25.1425C118.303 25.9958 118.235 26.8785 118.101 27.7878C117.965 28.6985 117.709 29.5332 117.33 30.2958C116.953 31.0558 116.425 31.6825 115.747 32.1718C115.071 32.6625 114.198 32.9092 113.129 32.9092C112.059 32.9092 111.186 32.6625 110.509 32.1718C109.831 31.6825 109.305 31.0558 108.927 30.2958C108.549 29.5332 108.293 28.6985 108.157 27.7878C108.021 26.8785 107.954 25.9958 107.954 25.1425C107.954 24.2892 108.021 23.4078 108.157 22.4972C108.293 21.5865 108.549 20.7518 108.927 19.9905C109.305 19.2305 109.831 18.6038 110.509 18.1132C111.186 17.6225 112.059 17.3772 113.129 17.3772Z" fill="#181817"/>
<path d="M120.464 17.6751H130.707V19.7031C129.923 20.5844 129.209 21.4977 128.568 22.4431C127.927 23.3897 127.367 24.3924 126.889 25.4511C126.412 26.5111 126.023 27.6311 125.724 28.8124C125.425 29.9924 125.225 31.2591 125.125 32.6084H122.452C122.539 31.4284 122.741 30.2617 123.061 29.1097C123.383 27.9591 123.796 26.8417 124.301 25.7604C124.808 24.6804 125.396 23.6431 126.067 22.6471C126.736 21.6511 127.456 20.7191 128.225 19.8524H120.464V17.6751Z" fill="#181817"/>
<path d="M22.4212 49.2167H27.0839L24.7946 42.6674H24.7306L22.4212 49.2167ZM23.3626 40.0434H26.2066L32.0866 55.2754H29.2212L27.7892 51.2447H21.6946L20.2612 55.2754H17.5039L23.3626 40.0434Z" fill="#181817"/>
<path d="M38.651 53.3561C39.1923 53.3561 39.6523 53.2454 40.0297 53.0254C40.407 52.8054 40.7137 52.5134 40.9497 52.1507C41.1843 51.7867 41.3563 51.3761 41.463 50.9134C41.5697 50.4507 41.623 49.9854 41.623 49.5161C41.623 49.0467 41.567 48.5921 41.4523 48.1507C41.3377 47.7107 41.163 47.3187 40.9283 46.9774C40.6937 46.6361 40.3857 46.3654 40.0083 46.1654C39.631 45.9667 39.179 45.8681 38.651 45.8681C38.1083 45.8681 37.6523 45.9814 37.283 46.2094C36.911 46.4374 36.6123 46.7307 36.3843 47.0947C36.1563 47.4574 35.9923 47.8694 35.8923 48.3307C35.7923 48.7934 35.743 49.2534 35.743 49.7081C35.743 50.1627 35.799 50.6067 35.9137 51.0414C36.0283 51.4747 36.203 51.8627 36.4377 52.2041C36.6737 52.5454 36.9723 52.8227 37.3363 53.0361C37.699 53.2494 38.1377 53.3561 38.651 53.3561ZM44.0617 54.7001C44.0617 56.3641 43.5937 57.6054 42.6603 58.4227C41.727 59.2401 40.383 59.6494 38.6297 59.6494C38.0737 59.6494 37.5137 59.5921 36.951 59.4787C36.387 59.3641 35.8737 59.1721 35.411 58.9027C34.9483 58.6321 34.559 58.2761 34.2457 57.8347C33.9323 57.3947 33.747 56.8547 33.6897 56.2147H36.127C36.199 56.5547 36.3203 56.8321 36.491 57.0467C36.6617 57.2601 36.8657 57.4267 37.1003 57.5481C37.3363 57.6681 37.595 57.7467 37.8803 57.7814C38.1657 57.8187 38.4657 57.8347 38.779 57.8347C39.763 57.8347 40.483 57.5934 40.939 57.1094C41.395 56.6267 41.623 55.9307 41.623 55.0201V53.3334H41.5803C41.2377 53.9454 40.771 54.4227 40.179 54.7641C39.5883 55.1054 38.951 55.2747 38.2657 55.2747C37.3817 55.2747 36.6297 55.1227 36.0097 54.8174C35.3897 54.5107 34.8763 54.0921 34.471 53.5574C34.0643 53.0254 33.7683 52.4094 33.583 51.7134C33.3977 51.0161 33.3057 50.2707 33.3057 49.4734C33.3057 48.7334 33.419 48.0294 33.647 47.3614C33.875 46.6934 34.203 46.1054 34.631 45.6014C35.059 45.0974 35.583 44.6947 36.203 44.3947C36.823 44.0974 37.5243 43.9467 38.3083 43.9467C39.007 43.9467 39.6483 44.0934 40.2337 44.3841C40.8177 44.6761 41.267 45.1347 41.5803 45.7614H41.623V44.2467H44.0617V54.7001Z" fill="#181817"/>
<path d="M47.1621 44.2474H49.4501V46.3807H49.4928C49.5634 46.0821 49.7034 45.7901 49.9101 45.5047C50.1154 45.2207 50.3661 44.9621 50.6581 44.7261C50.9501 44.4927 51.2741 44.3034 51.6314 44.1621C51.9874 44.0194 52.3514 43.9474 52.7208 43.9474C53.0061 43.9474 53.2021 43.9554 53.3101 43.9701C53.4168 43.9847 53.5261 43.9981 53.6408 44.0114V46.3594C53.4701 46.3314 53.2954 46.3061 53.1168 46.2834C52.9394 46.2634 52.7648 46.2527 52.5928 46.2527C52.1794 46.2527 51.7914 46.3341 51.4274 46.4981C51.0648 46.6621 50.7461 46.9034 50.4768 47.2221C50.2048 47.5434 49.9914 47.9381 49.8341 48.4074C49.6781 48.8767 49.5994 49.4167 49.5994 50.0287V55.2754H47.1621V44.2474Z" fill="#181817"/>
<path d="M55.3936 44.2474H57.8322V55.2754H55.3936V44.2474ZM55.3936 40.0447H57.8322V42.3501H55.3936V40.0447Z" fill="#181817"/>
<path d="M68.5872 47.9375C68.4872 47.2548 68.2125 46.7402 67.7632 46.3908C67.3138 46.0428 66.7485 45.8682 66.0632 45.8682C65.7498 45.8682 65.4152 45.9215 65.0592 46.0282C64.7018 46.1348 64.3738 46.3348 64.0752 46.6268C63.7752 46.9175 63.5258 47.3228 63.3272 47.8415C63.1272 48.3602 63.0272 49.0402 63.0272 49.8788C63.0272 50.3348 63.0805 50.7895 63.1872 51.2442C63.2938 51.6988 63.4658 52.1055 63.7005 52.4615C63.9365 52.8162 64.2392 53.1042 64.6098 53.3242C64.9805 53.5455 65.4285 53.6548 65.9565 53.6548C66.6698 53.6548 67.2578 53.4348 67.7205 52.9935C68.1845 52.5535 68.4725 51.9348 68.5872 51.1375H71.0245C70.7965 52.5748 70.2512 53.6735 69.3885 54.4335C68.5258 55.1948 67.3818 55.5762 65.9565 55.5762C65.0872 55.5762 64.3205 55.4282 63.6578 55.1375C62.9952 54.8468 62.4352 54.4482 61.9792 53.9428C61.5232 53.4388 61.1778 52.8375 60.9432 52.1402C60.7072 51.4442 60.5898 50.6895 60.5898 49.8788C60.5898 49.0548 60.7032 48.2788 60.9312 47.5535C61.1592 46.8282 61.5018 46.1988 61.9578 45.6655C62.4138 45.1322 62.9805 44.7135 63.6578 44.4082C64.3352 44.1015 65.1298 43.9482 66.0418 43.9482C66.6832 43.9482 67.2925 44.0295 67.8698 44.1935C68.4485 44.3562 68.9605 44.6028 69.4098 44.9295C69.8592 45.2562 70.2258 45.6695 70.5112 46.1668C70.7965 46.6655 70.9672 47.2548 71.0245 47.9375H68.5872Z" fill="#181817"/>
<path d="M78.7229 53.6542C79.2643 53.6542 79.7349 53.5409 80.1349 53.3129C80.5336 53.0849 80.8616 52.7876 81.1176 52.4169C81.3749 52.0476 81.5629 51.6302 81.6843 51.1689C81.8056 50.7076 81.8656 50.2342 81.8656 49.7502C81.8656 49.2809 81.8056 48.8116 81.6843 48.3422C81.5629 47.8729 81.3749 47.4582 81.1176 47.0942C80.8616 46.7316 80.5336 46.4369 80.1349 46.2089C79.7349 45.9809 79.2643 45.8676 78.7229 45.8676C78.1816 45.8676 77.7109 45.9809 77.3109 46.2089C76.9123 46.4369 76.5843 46.7316 76.3283 47.0942C76.0709 47.4582 75.8829 47.8729 75.7616 48.3422C75.6403 48.8116 75.5803 49.2809 75.5803 49.7502C75.5803 50.2342 75.6403 50.7076 75.7616 51.1689C75.8829 51.6302 76.0709 52.0476 76.3283 52.4169C76.5843 52.7876 76.9123 53.0849 77.3109 53.3129C77.7109 53.5409 78.1816 53.6542 78.7229 53.6542ZM78.7229 55.5742C77.8389 55.5742 77.0509 55.4276 76.3603 55.1369C75.6683 54.8462 75.0843 54.4436 74.6069 53.9316C74.1283 53.4196 73.7656 52.8076 73.5163 52.0969C73.2669 51.3862 73.1416 50.6036 73.1416 49.7502C73.1416 48.9102 73.2669 48.1356 73.5163 47.4249C73.7656 46.7142 74.1283 46.1022 74.6069 45.5902C75.0843 45.0782 75.6683 44.6769 76.3603 44.3849C77.0509 44.0929 77.8389 43.9476 78.7229 43.9476C79.6069 43.9476 80.3936 44.0929 81.0856 44.3849C81.7776 44.6769 82.3616 45.0782 82.8389 45.5902C83.3163 46.1022 83.6803 46.7142 83.9296 47.4249C84.1789 48.1356 84.3043 48.9102 84.3043 49.7502C84.3043 50.6036 84.1789 51.3862 83.9296 52.0969C83.6803 52.8076 83.3163 53.4196 82.8389 53.9316C82.3616 54.4436 81.7776 54.8462 81.0856 55.1369C80.3936 55.4276 79.6069 55.5742 78.7229 55.5742Z" fill="#181817"/>
<path d="M87.04 40.0444H89.4787V55.2764H87.04V40.0444Z" fill="#181817"/>
<path d="M91.6602 44.2468H93.4988V40.9401H95.9375V44.2468H98.1388V46.0588H95.9375V51.9468C95.9375 52.2041 95.9468 52.4241 95.9682 52.6081C95.9908 52.7935 96.0402 52.9495 96.1188 53.0788C96.1962 53.2068 96.3148 53.3028 96.4708 53.3668C96.6282 53.4308 96.8415 53.4628 97.1122 53.4628C97.2842 53.4628 97.4548 53.4588 97.6268 53.4508C97.7975 53.4441 97.9682 53.4201 98.1388 53.3775V55.2548C97.8682 55.2828 97.6042 55.3108 97.3482 55.3388C97.0908 55.3681 96.8268 55.3828 96.5562 55.3828C95.9148 55.3828 95.3988 55.3228 95.0068 55.2015C94.6148 55.0801 94.3082 54.9028 94.0868 54.6668C93.8655 54.4335 93.7162 54.1388 93.6375 53.7815C93.5588 53.4268 93.5135 53.0215 93.4988 52.5655V46.0588H91.6602V44.2468Z" fill="#181817"/>
<path d="M110.242 55.2762H107.848V53.7415H107.805C107.505 54.2962 107.06 54.7402 106.468 55.0748C105.877 55.4082 105.274 55.5762 104.661 55.5762C103.208 55.5762 102.156 55.2162 101.508 54.4975C100.858 53.7802 100.534 52.6948 100.534 51.2455V44.2482H102.972V51.0095C102.972 51.9762 103.157 52.6602 103.528 53.0575C103.898 53.4562 104.418 53.6548 105.089 53.6548C105.602 53.6548 106.03 53.5775 106.372 53.4202C106.714 53.2642 106.992 53.0548 107.206 52.7922C107.42 52.5282 107.573 52.2122 107.666 51.8415C107.758 51.4722 107.805 51.0748 107.805 50.6468V44.2482H110.242V55.2762Z" fill="#181817"/>
<path d="M113.449 44.2474H115.737V46.3807H115.78C115.851 46.0821 115.991 45.7901 116.197 45.5047C116.403 45.2207 116.653 44.9621 116.945 44.7261C117.237 44.4927 117.561 44.3034 117.919 44.1621C118.275 44.0194 118.639 43.9474 119.008 43.9474C119.293 43.9474 119.489 43.9554 119.597 43.9701C119.704 43.9847 119.813 43.9981 119.928 44.0114V46.3594C119.757 46.3314 119.583 46.3061 119.404 46.2834C119.227 46.2634 119.052 46.2527 118.88 46.2527C118.467 46.2527 118.079 46.3341 117.715 46.4981C117.352 46.6621 117.033 46.9034 116.764 47.2221C116.492 47.5434 116.279 47.9381 116.121 48.4074C115.965 48.8767 115.887 49.4167 115.887 50.0287V55.2754H113.449V44.2474Z" fill="#181817"/>
<path d="M128.439 49.7512C128.068 49.9939 127.612 50.1392 127.071 50.1885C126.528 50.2379 125.987 50.3125 125.445 50.4125C125.188 50.4539 124.939 50.5152 124.696 50.5939C124.455 50.6712 124.24 50.7792 124.055 50.9139C123.869 51.0499 123.724 51.2259 123.617 51.4459C123.509 51.6685 123.456 51.9352 123.456 52.2472C123.456 52.5165 123.535 52.7445 123.692 52.9299C123.848 53.1139 124.037 53.2605 124.259 53.3672C124.479 53.4739 124.721 53.5485 124.985 53.5912C125.249 53.6339 125.488 53.6552 125.701 53.6552C125.972 53.6552 126.265 53.6192 126.579 53.5485C126.892 53.4779 127.188 53.3565 127.467 53.1859C127.744 53.0152 127.975 52.7979 128.161 52.5352C128.347 52.2725 128.439 51.9472 128.439 51.5632V49.7512ZM130.877 52.8232C130.877 53.1205 130.916 53.3352 130.995 53.4632C131.072 53.5912 131.225 53.6552 131.453 53.6552H131.711C131.809 53.6552 131.924 53.6405 132.052 53.6125V55.2979C131.967 55.3259 131.856 55.3579 131.721 55.3925C131.585 55.4285 131.447 55.4605 131.304 55.4899C131.161 55.5179 131.019 55.5392 130.877 55.5539C130.733 55.5672 130.612 55.5752 130.513 55.5752C130.013 55.5752 129.601 55.4752 129.272 55.2765C128.944 55.0765 128.731 54.7285 128.632 54.2299C128.147 54.7005 127.551 55.0419 126.845 55.2552C126.14 55.4685 125.46 55.5752 124.804 55.5752C124.304 55.5752 123.828 55.5072 123.371 55.3725C122.915 55.2365 122.512 55.0379 122.163 54.7752C121.813 54.5112 121.535 54.1765 121.328 53.7725C121.123 53.3672 121.019 52.8939 121.019 52.3539C121.019 51.6699 121.143 51.1152 121.393 50.6899C121.643 50.2632 121.971 49.9285 122.377 49.6872C122.783 49.4459 123.239 49.2712 123.745 49.1645C124.251 49.0565 124.761 48.9765 125.273 48.9192C125.716 48.8339 126.136 48.7739 126.536 48.7379C126.935 48.7019 127.288 48.6419 127.595 48.5565C127.9 48.4712 128.143 48.3392 128.321 48.1619C128.499 47.9845 128.588 47.7179 128.588 47.3619C128.588 47.0499 128.513 46.7925 128.364 46.5939C128.215 46.3939 128.029 46.2419 127.808 46.1352C127.587 46.0285 127.341 45.9565 127.071 45.9219C126.8 45.8872 126.543 45.8685 126.3 45.8685C125.616 45.8685 125.052 46.0099 124.611 46.2952C124.169 46.5792 123.92 47.0205 123.863 47.6165H121.425C121.468 46.9059 121.639 46.3165 121.939 45.8472C122.237 45.3779 122.619 45.0005 123.083 44.7165C123.545 44.4325 124.069 44.2325 124.655 44.1179C125.239 44.0045 125.837 43.9472 126.451 43.9472C126.992 43.9472 127.527 44.0045 128.053 44.1179C128.581 44.2325 129.055 44.4179 129.476 44.6725C129.896 44.9299 130.235 45.2605 130.492 45.6659C130.748 46.0712 130.877 46.5645 130.877 47.1485V52.8232Z" fill="#181817"/>
<path d="M140.539 38.8866H143.472V55.5986H140.539V38.8866Z" fill="#231F20"/>
<path d="M146.17 43.4972H148.187V39.8692H150.862V43.4972H153.279V45.4865H150.862V51.9465C150.862 52.2278 150.874 52.4692 150.897 52.6718C150.921 52.8758 150.975 53.0465 151.062 53.1878C151.147 53.3292 151.277 53.4332 151.449 53.5025C151.621 53.5745 151.855 53.6092 152.153 53.6092C152.339 53.6092 152.529 53.6052 152.717 53.5972C152.903 53.5892 153.091 53.5612 153.279 53.5158V55.5745C152.982 55.6065 152.693 55.6372 152.411 55.6678C152.129 55.6998 151.839 55.7158 151.542 55.7158C150.838 55.7158 150.271 55.6492 149.842 55.5158C149.411 55.3838 149.075 55.1892 148.833 54.9318C148.59 54.6745 148.426 54.3505 148.339 53.9598C148.254 53.5692 148.203 53.1252 148.187 52.6252V45.4865H146.17V43.4972Z" fill="#231F20"/>
<path d="M163.39 49.5364C162.984 49.8018 162.482 49.9618 161.889 50.0164C161.294 50.0711 160.7 50.1524 160.106 50.2618C159.824 50.3084 159.55 50.3751 159.284 50.4604C159.018 50.5471 158.784 50.6644 158.581 50.8124C158.377 50.9604 158.217 51.1551 158.1 51.3978C157.982 51.6391 157.924 51.9324 157.924 52.2751C157.924 52.5711 158.009 52.8218 158.182 53.0244C158.353 53.2271 158.561 53.3858 158.804 53.5031C159.046 53.6204 159.312 53.7031 159.601 53.7498C159.89 53.7964 160.153 53.8191 160.388 53.8191C160.685 53.8191 161.005 53.7804 161.349 53.7031C161.693 53.6244 162.018 53.4924 162.322 53.3044C162.628 53.1178 162.881 52.8804 163.085 52.5911C163.289 52.3018 163.39 51.9471 163.39 51.5258V49.5364ZM166.065 52.9071C166.065 53.2338 166.108 53.4684 166.194 53.6098C166.28 53.7498 166.448 53.8191 166.698 53.8191H166.98C167.089 53.8191 167.214 53.8044 167.356 53.7724V55.6218C167.261 55.6524 167.141 55.6884 166.992 55.7271C166.842 55.7658 166.69 55.8018 166.533 55.8324C166.377 55.8631 166.221 55.8871 166.065 55.9031C165.908 55.9178 165.776 55.9258 165.666 55.9258C165.118 55.9258 164.665 55.8164 164.305 55.5978C163.945 55.3804 163.71 54.9978 163.601 54.4511C163.069 54.9658 162.417 55.3418 161.642 55.5751C160.868 55.8098 160.121 55.9258 159.402 55.9258C158.854 55.9258 158.33 55.8524 157.83 55.7031C157.329 55.5564 156.888 55.3378 156.504 55.0484C156.121 54.7591 155.816 54.3924 155.589 53.9484C155.362 53.5031 155.249 52.9844 155.249 52.3924C155.249 51.6431 155.386 51.0338 155.66 50.5658C155.933 50.0978 156.293 49.7311 156.74 49.4658C157.185 49.2018 157.685 49.0098 158.241 48.8924C158.796 48.7751 159.356 48.6858 159.918 48.6231C160.402 48.5298 160.864 48.4631 161.302 48.4258C161.74 48.3858 162.128 48.3191 162.464 48.2258C162.8 48.1324 163.065 47.9871 163.261 47.7924C163.457 47.5978 163.554 47.3044 163.554 46.9151C163.554 46.5711 163.473 46.2911 163.308 46.0711C163.144 45.8538 162.941 45.6858 162.697 45.5684C162.456 45.4524 162.186 45.3738 161.889 45.3351C161.592 45.2964 161.31 45.2764 161.044 45.2764C160.293 45.2764 159.674 45.4324 159.19 45.7444C158.705 46.0564 158.432 46.5404 158.369 47.1951H155.696C155.742 46.4151 155.93 45.7671 156.257 45.2538C156.586 44.7378 157.005 44.3244 157.513 44.0124C158.021 43.7004 158.596 43.4818 159.238 43.3564C159.878 43.2324 160.536 43.1698 161.209 43.1698C161.804 43.1698 162.389 43.2324 162.968 43.3564C163.546 43.4818 164.066 43.6844 164.528 43.9658C164.989 44.2471 165.361 44.6084 165.642 45.0538C165.924 45.4991 166.065 46.0404 166.065 46.6804V52.9071Z" fill="#231F20"/>
<path d="M169.725 38.8866H172.399V55.5986H169.725V38.8866Z" fill="#231F20"/>
<path d="M176.083 43.4973H178.758V55.5986H176.083V43.4973ZM176.083 38.8866H178.758V41.4146H176.083V38.8866Z" fill="#231F20"/>
<path d="M189.854 49.5364C189.448 49.8018 188.946 49.9618 188.353 50.0164C187.758 50.0711 187.164 50.1524 186.57 50.2618C186.289 50.3084 186.014 50.3751 185.748 50.4604C185.482 50.5471 185.248 50.6644 185.045 50.8124C184.841 50.9604 184.681 51.1551 184.564 51.3978C184.446 51.6391 184.388 51.9324 184.388 52.2751C184.388 52.5711 184.473 52.8218 184.646 53.0244C184.817 53.2271 185.025 53.3858 185.268 53.5031C185.51 53.6204 185.776 53.7031 186.065 53.7498C186.354 53.7964 186.617 53.8191 186.852 53.8191C187.149 53.8191 187.469 53.7804 187.813 53.7031C188.157 53.6244 188.482 53.4924 188.786 53.3044C189.092 53.1178 189.345 52.8804 189.549 52.5911C189.753 52.3018 189.854 51.9471 189.854 51.5258V49.5364ZM192.529 52.9071C192.529 53.2338 192.572 53.4684 192.658 53.6098C192.744 53.7498 192.912 53.8191 193.162 53.8191H193.444C193.553 53.8191 193.678 53.8044 193.82 53.7724V55.6218C193.725 55.6524 193.605 55.6884 193.456 55.7271C193.306 55.7658 193.154 55.8018 192.997 55.8324C192.841 55.8631 192.685 55.8871 192.529 55.9031C192.372 55.9178 192.24 55.9258 192.13 55.9258C191.582 55.9258 191.129 55.8164 190.769 55.5978C190.409 55.3804 190.174 54.9978 190.065 54.4511C189.533 54.9658 188.881 55.3418 188.106 55.5751C187.332 55.8098 186.585 55.9258 185.866 55.9258C185.318 55.9258 184.794 55.8524 184.294 55.7031C183.793 55.5564 183.352 55.3378 182.968 55.0484C182.585 54.7591 182.28 54.3924 182.053 53.9484C181.826 53.5031 181.713 52.9844 181.713 52.3924C181.713 51.6431 181.85 51.0338 182.124 50.5658C182.397 50.0978 182.757 49.7311 183.204 49.4658C183.649 49.2018 184.149 49.0098 184.705 48.8924C185.26 48.7751 185.82 48.6858 186.382 48.6231C186.866 48.5298 187.328 48.4631 187.766 48.4258C188.204 48.3858 188.592 48.3191 188.928 48.2258C189.264 48.1324 189.529 47.9871 189.725 47.7924C189.921 47.5978 190.018 47.3044 190.018 46.9151C190.018 46.5711 189.937 46.2911 189.772 46.0711C189.608 45.8538 189.405 45.6858 189.161 45.5684C188.92 45.4524 188.65 45.3738 188.353 45.3351C188.056 45.2964 187.774 45.2764 187.509 45.2764C186.757 45.2764 186.138 45.4324 185.654 45.7444C185.169 46.0564 184.896 46.5404 184.833 47.1951H182.16C182.206 46.4151 182.394 45.7671 182.721 45.2538C183.05 44.7378 183.469 44.3244 183.977 44.0124C184.485 43.7004 185.061 43.4818 185.702 43.3564C186.342 43.2324 187 43.1698 187.673 43.1698C188.268 43.1698 188.853 43.2324 189.432 43.3564C190.01 43.4818 190.53 43.6844 190.992 43.9658C191.453 44.2471 191.825 44.6084 192.106 45.0538C192.388 45.4991 192.529 46.0404 192.529 46.6804V52.9071Z" fill="#231F20"/>
<path d="M17.5029 217.291H247.731V64.163H17.5029V217.291Z" fill="#80CC28"/>
</g>
<mask id="mask1_20_3018" style="mask-type:luminance" maskUnits="userSpaceOnUse" x="17" y="64" width="231" height="154">
<path d="M17.5029 217.292H247.731V64.164H17.5029V217.292Z" fill="white"/>
</mask>
<g mask="url(#mask1_20_3018)">
<path d="M107.168 99.5277C109.623 99.7224 110.835 99.8477 113.244 100.137C114.026 100.236 114.77 99.8931 114.9 99.3691C115.32 97.7517 115.535 96.9397 115.944 95.3117C116.079 94.7784 116.474 94.8304 116.807 95.4251C117.867 97.2464 118.388 98.1624 119.391 100.006C119.727 100.609 120.622 101.185 121.378 101.334C123.627 101.794 124.45 102 127.172 102.722C127.924 102.926 128.046 103.268 127.5 103.457C125.826 104.036 124.959 104.194 123.231 104.897C122.676 105.118 122.474 105.806 122.782 106.413C123.714 108.268 124.154 109.26 125.014 111.245C125.3 111.897 125.03 111.969 124.412 111.422C122.522 109.765 121.539 109.142 119.551 107.752C118.888 107.293 117.896 107.125 117.335 107.362C115.64 108.1 114.795 108.614 113.074 109.385C112.51 109.64 112.171 109.422 112.315 108.913C112.759 107.338 112.979 106.413 113.41 104.838C113.551 104.329 113.104 103.562 112.418 103.156C110.286 101.888 109.203 101.278 107.02 100.11C106.308 99.7251 106.374 99.4677 107.168 99.5277Z" fill="white"/>
<path d="M83.2209 117.01C86.1516 116.397 87.0543 116.253 89.8289 115.86C90.6569 115.742 91.4996 115.246 91.6983 114.704C92.3023 113.018 92.5836 112.185 93.1769 110.524C93.3676 109.988 93.7743 109.964 94.0796 110.458C95.0356 112.024 95.5023 112.81 96.4289 114.406C96.7316 114.924 97.6303 115.378 98.4116 115.329C101.017 115.174 101.621 115.022 104.266 114.894C105.026 114.854 105.124 115.154 104.584 115.504C102.556 116.816 101.937 117.353 100.14 118.434C99.5623 118.781 99.2769 119.426 99.5689 119.97C100.444 121.598 100.876 122.425 101.72 124.109C102 124.661 101.697 124.814 101.046 124.449C99.0783 123.338 98.0769 122.825 96.0209 121.897C95.3423 121.578 94.2756 121.629 93.6489 122.001C91.7476 123.134 91.1143 123.542 88.5623 125.138C87.8529 125.58 87.5049 125.51 87.7703 124.832C88.5956 122.716 88.8809 122.205 89.5609 120.517C89.7836 119.966 89.3556 119.31 88.6383 119.09C86.4209 118.414 85.2943 118.128 82.9849 117.654C82.2383 117.508 82.3409 117.209 83.2209 117.01Z" fill="white"/>
<path d="M70.5632 139.178C73.2378 138.958 74.5272 138.909 77.0152 138.902C77.8285 138.898 78.8098 138.461 79.2112 137.909C80.4672 136.209 81.0845 135.369 82.3165 133.706C82.7138 133.167 83.0978 133.186 83.1765 133.753C83.4058 135.494 83.5205 136.377 83.7058 138.151C83.7685 138.721 84.4312 139.241 85.1538 139.343C87.6765 139.693 88.0778 139.761 90.6205 140.23C91.3085 140.358 91.3232 140.665 90.6685 140.886C88.6352 141.561 87.5952 141.938 85.4592 142.757C84.7672 143.022 84.1485 143.733 84.1592 144.318C84.1685 146.115 84.1738 147.019 84.1485 148.851C84.1352 149.454 83.7765 149.59 83.3365 149.162C81.9885 147.873 81.3005 147.238 79.8525 146.034C79.3738 145.642 78.3538 145.593 77.5898 145.918C75.2578 146.927 74.0725 147.467 71.6765 148.585C70.8885 148.951 70.6125 148.79 71.0832 148.206C72.4952 146.439 73.2072 145.562 74.5938 143.823C75.0592 143.258 74.9885 142.51 74.4538 142.181C72.7765 141.154 71.9098 140.682 70.0685 139.817C69.4725 139.538 69.7032 139.247 70.5632 139.178Z" fill="white"/>
<path d="M113.539 168.728C111.78 169.73 110.816 170.386 108.95 171.695C108.344 172.12 107.971 173.036 108.123 173.722C108.592 175.824 108.819 176.896 109.263 179.139C109.407 179.872 109.094 180.112 108.564 179.667C106.959 178.292 106.155 177.638 104.546 176.375C104.011 175.954 103.064 176.006 102.44 176.491C100.539 177.954 99.5857 178.708 97.6537 180.258C97.015 180.775 96.751 180.56 97.047 179.806C97.9604 177.508 98.4124 176.394 99.291 174.21C99.5857 173.496 99.3764 172.611 98.8244 172.242C97.1484 171.119 96.295 170.58 94.5857 169.559C94.0284 169.23 94.1764 168.887 94.9017 168.788C97.1617 168.503 98.279 168.392 100.498 168.216C101.215 168.155 102.03 167.564 102.299 166.903C103.148 164.835 103.563 163.824 104.371 161.883C104.636 161.247 104.988 161.243 105.159 161.854C105.678 163.744 105.928 164.707 106.435 166.687C106.595 167.33 107.308 167.844 108.004 167.831C110.172 167.786 111.255 167.739 113.358 167.984C114.044 168.056 114.107 168.408 113.539 168.728Z" fill="white"/>
<path d="M142.427 171.981C140.883 172.487 140.111 172.76 138.545 173.32C138.032 173.504 137.796 174.167 138.021 174.793C138.708 176.695 139.06 177.643 139.781 179.548C140.02 180.172 139.759 180.288 139.195 179.791C137.503 178.296 136.668 177.532 135.027 175.987C134.48 175.481 133.617 175.232 133.092 175.453C131.503 176.124 130.695 176.476 129.059 177.241C128.513 177.495 128.24 177.228 128.444 176.655C129.077 174.925 129.38 174.095 129.981 172.463C130.179 171.924 129.905 171.068 129.38 170.555C127.775 168.963 126.981 168.159 125.403 166.564C124.896 166.045 124.996 165.785 125.632 165.983C127.597 166.6 128.579 166.912 130.533 167.545C131.167 167.749 131.833 167.501 132.019 167.004C132.593 165.453 132.875 164.707 133.427 163.227C133.601 162.753 133.909 162.861 134.113 163.475C134.737 165.357 135.053 166.305 135.703 168.211C135.911 168.828 136.6 169.507 137.237 169.707C139.211 170.353 140.189 170.672 142.164 171.312C142.804 171.52 142.923 171.815 142.427 171.981Z" fill="white"/>
<path d="M168.351 164.337C166.623 164.997 165.822 165.34 164.147 165.992C163.608 166.2 163.398 166.861 163.696 167.468C164.58 169.299 165.036 170.215 165.979 172.02C166.282 172.607 166.007 172.736 165.363 172.28C163.398 170.889 162.434 170.193 160.576 168.523C159.962 167.972 159.039 167.647 158.51 167.816C156.915 168.323 156.119 168.571 154.536 169.088C154.011 169.259 153.706 168.975 153.856 168.461C154.339 166.899 154.576 166.131 155.052 164.604C155.22 164.095 154.859 163.237 154.287 162.676C152.491 160.936 151.607 160.037 149.875 158.283C149.311 157.704 149.396 157.465 150.063 157.733C152.124 158.577 153.15 158.989 155.235 159.784C155.91 160.047 156.603 159.855 156.763 159.368C157.262 157.843 157.522 157.087 158.04 155.573C158.208 155.083 158.54 155.215 158.79 155.848C159.552 157.831 159.95 158.824 160.758 160.799C161.024 161.441 161.799 162.152 162.507 162.392C164.66 163.112 165.79 163.237 168.039 163.697C168.762 163.833 168.9 164.121 168.351 164.337Z" fill="white"/>
<path d="M185.264 147.162C183.616 148.306 182.804 148.837 181.204 149.809C180.696 150.125 180.465 150.772 180.696 151.248C181.412 152.7 181.781 153.413 182.514 154.818C182.765 155.286 182.504 155.416 181.944 155.113C180.257 154.209 179.426 153.714 177.796 152.662C177.256 152.317 176.425 152.209 175.933 152.429C174.45 153.101 173.722 153.413 172.282 154.029C171.806 154.236 171.544 154.037 171.701 153.596C172.162 152.256 172.401 151.589 172.881 150.237C173.038 149.792 172.753 149.104 172.233 148.705C170.657 147.465 169.892 146.734 168.364 145.4C167.868 144.968 167.945 144.744 168.549 144.881C170.39 145.334 171.321 145.534 173.222 145.858C173.844 145.962 174.488 145.629 174.656 145.12C175.188 143.544 175.458 142.746 176.008 141.104C176.192 140.581 176.504 140.608 176.706 141.165C177.341 142.904 177.681 143.765 178.337 145.488C178.548 146.041 179.25 146.542 179.897 146.569C181.9 146.661 182.916 146.668 185.004 146.552C185.68 146.522 185.789 146.786 185.264 147.162Z" fill="white"/>
<path d="M198.991 121.132C197.407 122.787 196.611 123.603 195.031 125.172C194.52 125.673 194.246 126.461 194.416 126.923C194.951 128.307 195.222 128.989 195.795 130.32C195.976 130.749 195.723 131.016 195.215 130.891C193.679 130.519 192.931 130.295 191.472 129.769C190.996 129.593 190.192 129.831 189.699 130.291C188.184 131.683 187.387 132.364 185.984 133.597C185.528 134 185.294 133.88 185.458 133.349C185.964 131.711 186.362 130.827 186.976 129.101C187.18 128.531 186.972 127.885 186.515 127.671C185.111 126.981 184.427 126.6 183.07 125.805C182.631 125.548 182.73 125.271 183.291 125.183C185.044 124.901 185.928 124.728 187.728 124.303C188.31 124.16 188.963 123.548 189.174 122.957C189.82 121.112 190.142 120.183 190.8 118.291C191.01 117.671 191.308 117.58 191.456 118.089C191.914 119.66 192.156 120.429 192.642 121.936C192.798 122.42 193.431 122.651 194.032 122.447C195.911 121.795 196.867 121.437 198.788 120.632C199.412 120.384 199.51 120.604 198.991 121.132Z" fill="white"/>
<path d="M169.14 103.983C170.766 104.122 171.394 104.082 173.295 104.022C173.852 104.002 174.423 103.526 174.576 102.947C175.046 101.155 175.29 100.228 175.778 98.307C175.936 97.6883 176.215 97.6523 176.396 98.2256C176.958 100.008 177.24 100.859 177.808 102.536C177.99 103.076 178.59 103.412 179.152 103.412C180.67 103.412 181.634 103.363 183.534 103.268C184.102 103.239 184.232 103.466 183.738 103.851C182.344 104.948 181.622 105.324 180.255 106.412C179.788 106.784 179.607 107.556 179.792 108.063C180.363 109.592 180.652 110.343 181.234 111.811C181.427 112.296 181.208 112.482 180.744 112.236C179.348 111.484 178.65 111.095 177.263 110.271C176.803 110.002 176.076 110.078 175.65 110.431C174.355 111.514 173.712 112.034 172.444 113.011C172.03 113.324 171.803 113.142 171.939 112.652C172.348 111.184 172.559 110.407 172.996 108.799C173.14 108.274 172.871 107.618 172.428 107.302C171.01 106.286 170.343 105.711 168.979 104.574C168.534 104.2 168.607 103.936 169.14 103.983Z" fill="white"/>
<path d="M139.036 98.1921C140.95 98.7388 141.9 99.0121 143.786 99.5655C144.409 99.7401 145.044 99.4868 145.208 99.0068C145.724 97.4961 145.978 96.7255 146.516 95.1295C146.686 94.6201 147.009 94.6881 147.218 95.3001C147.868 97.1895 148.178 98.1348 148.801 100.004C148.998 100.611 149.656 101.247 150.266 101.425C152.164 101.973 153.101 102.236 154.996 102.772C155.61 102.948 155.702 103.257 155.198 103.468C153.652 104.101 152.901 104.401 151.397 104.961C150.913 105.145 150.677 105.772 150.861 106.367C151.433 108.175 151.709 109.065 152.27 110.836C152.453 111.415 152.213 111.499 151.737 111.009C150.3 109.54 149.569 108.799 148.096 107.331C147.614 106.847 146.828 106.587 146.36 106.748C144.934 107.229 144.233 107.457 142.833 107.888C142.377 108.036 142.121 107.793 142.277 107.353C142.745 106.023 142.99 105.351 143.468 103.967C143.628 103.512 143.346 102.748 142.849 102.279C141.285 100.824 140.482 100.104 138.872 98.7028C138.346 98.2415 138.421 98.0175 139.036 98.1921Z" fill="white"/>
<path d="M213.871 97.0628C212.481 98.3255 211.749 98.9802 210.26 100.339C209.775 100.783 209.505 101.46 209.673 101.832C210.183 102.963 210.448 103.51 211.011 104.554C211.2 104.894 210.947 105.135 210.451 105.075C208.955 104.91 208.224 104.784 206.779 104.499C206.303 104.406 205.504 104.703 204.989 105.174C203.436 106.595 202.651 107.314 201.065 108.75C200.545 109.211 200.305 109.156 200.529 108.615C201.228 106.971 201.576 106.14 202.259 104.498C202.487 103.959 202.299 103.402 201.841 103.259C200.437 102.83 199.756 102.58 198.391 102.043C197.955 101.866 198.072 101.584 198.665 101.414C200.473 100.9 201.383 100.623 203.193 100.063C203.783 99.8802 204.437 99.2815 204.667 98.7402C205.351 97.0468 205.701 96.2055 206.375 94.5148C206.599 93.9708 206.875 93.8988 207.003 94.3495C207.384 95.7242 207.591 96.3868 208.031 97.6695C208.172 98.0868 208.756 98.2588 209.332 98.0802C211.105 97.4922 211.981 97.2055 213.687 96.6548C214.239 96.4762 214.319 96.6628 213.871 97.0628Z" fill="white"/>
<path d="M152.47 127.103C153.484 126.829 153.63 126.317 152.427 126.38C150.368 126.483 126.398 131.989 105.616 144.077C83.0084 157.237 76.175 163.793 71.347 167.527C70.0697 168.515 69.123 168.532 68.8977 167.928C68.1257 165.875 67.6417 164.705 67.0124 162.784C66.8217 162.197 66.2657 162.263 66.019 163.079C65.1724 165.867 64.767 167.567 63.9404 170.079C63.6804 170.885 63.4044 171.769 61.903 172.811C58.935 174.871 58.3177 175.273 56.4684 176.531C55.7977 176.985 55.4497 177.487 56.7897 177.728C58.0777 177.961 58.3337 178.011 60.0737 178.328C61.463 178.585 61.0017 179.521 60.8044 180.339C60.2417 182.669 59.999 183.608 59.247 186.004C58.9937 186.792 59.3164 186.893 59.963 186.224C61.9364 184.163 62.5777 183.472 64.6657 181.304C65.451 180.485 66.187 179.548 67.011 179.699C69.0484 180.064 69.2937 180.127 72.1484 180.665C73.4137 180.904 73.407 180.321 73.071 179.492C72.0924 177.075 72.2737 177.395 71.5337 175.351C71.2937 174.696 71.2524 173.476 71.9937 172.755C83.9044 161.192 88.8377 157.416 105.208 146.763C118.035 138.417 135.078 131.787 152.47 127.103Z" fill="white"/>
</g>
<mask id="mask2_20_3018" style="mask-type:luminance" maskUnits="userSpaceOnUse" x="0" y="0" width="281" height="291">
<path d="M0 0.000342846H280.889V290.667H0V0.000342846Z" fill="white"/>
</mask>
<g mask="url(#mask2_20_3018)">
<path d="M132.166 261.3L131.565 259.554C131.473 259.272 131.357 258.774 131.357 258.774H131.342C131.342 258.774 131.218 259.272 131.126 259.554L130.517 261.3H132.166ZM130.879 258.227C130.926 258.079 131.018 258.018 131.163 258.018H131.534C131.673 258.018 131.774 258.079 131.819 258.227L133.61 263.228C133.67 263.407 133.586 263.524 133.399 263.524H133.139C132.993 263.524 132.901 263.452 132.854 263.312L132.367 261.94H130.317L129.837 263.312C129.799 263.452 129.699 263.524 129.561 263.524H129.298C129.106 263.524 129.029 263.407 129.09 263.228L130.879 258.227Z" fill="#35767D"/>
<path d="M136.469 258.275C136.469 258.104 136.554 258.019 136.723 258.019H139.214C139.378 258.019 139.47 258.104 139.47 258.275V258.432C139.47 258.595 139.378 258.689 139.214 258.689H137.226V260.497H138.875C139.046 260.497 139.13 260.592 139.13 260.755V260.911C139.13 261.083 139.046 261.168 138.875 261.168H137.226V263.265C137.226 263.439 137.139 263.525 136.971 263.525H136.723C136.554 263.525 136.469 263.439 136.469 263.265V258.275Z" fill="#35767D"/>
<path d="M142.87 262.907C144.026 262.907 144.874 261.963 144.874 260.731C144.874 259.539 144.026 258.633 142.87 258.633C141.712 258.633 140.857 259.539 140.857 260.731C140.857 261.963 141.712 262.907 142.87 262.907ZM142.87 257.923C144.489 257.923 145.661 259.149 145.661 260.731C145.661 262.353 144.489 263.618 142.87 263.618C141.25 263.618 140.07 262.353 140.07 260.731C140.07 259.149 141.25 257.923 142.87 257.923Z" fill="#35767D"/>
<path d="M149.207 262.907C150.364 262.907 151.214 261.963 151.214 260.731C151.214 259.539 150.364 258.633 149.207 258.633C148.051 258.633 147.196 259.539 147.196 260.731C147.196 261.963 148.051 262.907 149.207 262.907ZM149.207 257.923C150.827 257.923 151.999 259.149 151.999 260.731C151.999 262.353 150.827 263.618 149.207 263.618C147.59 263.618 146.408 262.353 146.408 260.731C146.408 259.149 147.59 257.923 149.207 257.923Z" fill="#35767D"/>
<path d="M154.845 262.852C156.072 262.852 156.873 262.12 156.873 260.763C156.873 259.414 156.064 258.688 154.845 258.688H153.848V262.852H154.845ZM153.095 258.275C153.095 258.104 153.179 258.019 153.349 258.019H154.9C156.557 258.019 157.661 259.024 157.661 260.763C157.661 262.511 156.557 263.524 154.9 263.524H153.349C153.179 263.524 153.095 263.439 153.095 263.266V258.275Z" fill="#35767D"/>
<path d="M161.199 257.923C162.132 257.923 162.734 258.291 163.003 258.494C163.127 258.587 163.134 258.711 163.048 258.851L162.95 259.009C162.856 259.147 162.74 259.165 162.594 259.07C162.363 258.915 161.886 258.633 161.23 258.633C159.966 258.633 159.218 259.569 159.218 260.73C159.218 261.902 159.98 262.907 161.238 262.907C161.955 262.907 162.478 262.557 162.718 262.37C162.848 262.267 162.974 262.267 163.074 262.399L163.187 262.557C163.282 262.681 163.274 262.806 163.15 262.915C162.872 263.149 162.21 263.618 161.214 263.618C159.534 263.618 158.43 262.353 158.43 260.739C158.43 259.141 159.572 257.923 161.199 257.923Z" fill="#35767D"/>
<path d="M164.275 258.275C164.275 258.104 164.359 258.019 164.53 258.019H164.777C164.947 258.019 165.03 258.104 165.03 258.275V260.443H167.861V258.275C167.861 258.104 167.954 258.019 168.115 258.019H168.37C168.533 258.019 168.618 258.104 168.618 258.275V263.265C168.618 263.439 168.533 263.525 168.37 263.525H168.115C167.954 263.525 167.861 263.439 167.861 263.265V261.107H165.03V263.265C165.03 263.439 164.947 263.525 164.777 263.525H164.53C164.359 263.525 164.275 263.439 164.275 263.265V258.275Z" fill="#35767D"/>
<path d="M172.58 261.3L171.979 259.554C171.887 259.272 171.77 258.774 171.77 258.774H171.755C171.755 258.774 171.632 259.272 171.539 259.554L170.93 261.3H172.58ZM171.292 258.227C171.339 258.079 171.431 258.018 171.578 258.018H171.948C172.086 258.018 172.187 258.079 172.234 258.227L174.023 263.228C174.083 263.407 173.999 263.524 173.814 263.524H173.551C173.404 263.524 173.312 263.452 173.266 263.312L172.78 261.94H170.73L170.251 263.312C170.212 263.452 170.111 263.524 169.974 263.524H169.711C169.519 263.524 169.442 263.407 169.503 263.228L171.292 258.227Z" fill="#35767D"/>
<path d="M174.901 258.275C174.901 258.104 174.985 258.019 175.156 258.019H175.401C175.572 258.019 175.656 258.104 175.656 258.275V263.265C175.656 263.439 175.572 263.525 175.401 263.525H175.156C174.985 263.525 174.901 263.439 174.901 263.265V258.275Z" fill="#35767D"/>
<path d="M177.099 258.275C177.099 258.104 177.183 258.019 177.352 258.019H177.647C177.793 258.019 177.877 258.065 177.955 258.191L180.276 261.597C180.468 261.895 180.724 262.392 180.724 262.392H180.737C180.737 262.392 180.692 261.903 180.692 261.597V258.275C180.692 258.104 180.785 258.019 180.948 258.019H181.193C181.363 258.019 181.447 258.104 181.447 258.275V263.265C181.447 263.439 181.363 263.525 181.193 263.525H180.901C180.761 263.525 180.669 263.477 180.599 263.351L178.271 259.951C178.077 259.648 177.824 259.148 177.824 259.148H177.807C177.807 259.148 177.855 259.64 177.855 259.951V263.265C177.855 263.439 177.769 263.525 177.601 263.525H177.352C177.183 263.525 177.099 263.439 177.099 263.265V258.275Z" fill="#35767D"/>
<path d="M184.871 258.275C184.871 258.104 184.955 258.019 185.126 258.019H185.372C185.543 258.019 185.626 258.104 185.626 258.275V263.265C185.626 263.439 185.543 263.525 185.372 263.525H185.126C184.955 263.525 184.871 263.439 184.871 263.265V258.275Z" fill="#35767D"/>
<path d="M188.82 262.852C190.046 262.852 190.848 262.12 190.848 260.763C190.848 259.414 190.038 258.688 188.82 258.688H187.825V262.852H188.82ZM187.07 258.275C187.07 258.104 187.153 258.019 187.325 258.019H188.874C190.532 258.019 191.634 259.024 191.634 260.763C191.634 262.511 190.532 263.524 188.874 263.524H187.325C187.153 263.524 187.07 263.439 187.07 263.266V258.275Z" fill="#35767D"/>
<path d="M197.156 257.923C198.088 257.923 198.689 258.291 198.96 258.494C199.083 258.587 199.092 258.711 199.005 258.851L198.907 259.009C198.813 259.147 198.697 259.165 198.551 259.07C198.321 258.915 197.841 258.633 197.185 258.633C195.921 258.633 195.175 259.569 195.175 260.73C195.175 261.902 195.936 262.907 197.193 262.907C197.911 262.907 198.435 262.557 198.675 262.37C198.805 262.267 198.928 262.267 199.029 262.399L199.145 262.557C199.237 262.681 199.229 262.806 199.107 262.915C198.828 263.149 198.165 263.618 197.169 263.618C195.489 263.618 194.387 262.353 194.387 260.739C194.387 259.141 195.527 257.923 197.156 257.923Z" fill="#35767D"/>
<path d="M202.59 262.907C203.748 262.907 204.596 261.963 204.596 260.731C204.596 259.539 203.748 258.633 202.59 258.633C201.435 258.633 200.578 259.539 200.578 260.731C200.578 261.963 201.435 262.907 202.59 262.907ZM202.59 257.923C204.21 257.923 205.383 259.149 205.383 260.731C205.383 262.353 204.21 263.618 202.59 263.618C200.971 263.618 199.791 262.353 199.791 260.731C199.791 259.149 200.971 257.923 202.59 257.923Z" fill="#35767D"/>
<path d="M206.694 258.26C206.709 258.104 206.802 258.019 206.955 258.019H207.303C207.449 258.019 207.542 258.08 207.587 258.22L208.769 260.997C208.891 261.301 209.038 261.739 209.038 261.739H209.054C209.054 261.739 209.191 261.301 209.315 260.997L210.497 258.22C210.542 258.08 210.634 258.019 210.781 258.019H211.127C211.281 258.019 211.374 258.104 211.39 258.26L211.79 263.259C211.798 263.431 211.714 263.525 211.543 263.525H211.298C211.137 263.525 211.05 263.439 211.035 263.273L210.789 260.053C210.757 259.717 210.771 259.243 210.771 259.243H210.757C210.757 259.243 210.589 259.751 210.463 260.053L209.462 262.332C209.409 262.472 209.315 262.535 209.169 262.535H208.915C208.769 262.535 208.675 262.472 208.621 262.332L207.619 260.053C207.503 259.757 207.327 259.227 207.327 259.227H207.31C207.31 259.227 207.327 259.717 207.295 260.053L207.049 263.273C207.033 263.439 206.947 263.525 206.794 263.525H206.541C206.369 263.525 206.285 263.431 206.293 263.259L206.694 258.26Z" fill="#35767D"/>
<path d="M214.914 260.818C215.568 260.818 215.97 260.404 215.97 259.742C215.97 259.078 215.568 258.688 214.92 258.688H213.803V260.818H214.914ZM213.047 258.275C213.047 258.104 213.132 258.018 213.302 258.018H215.036C216.031 258.018 216.74 258.696 216.74 259.742C216.74 260.787 216.031 261.487 215.036 261.487H213.803V263.266C213.803 263.439 213.718 263.524 213.548 263.524H213.302C213.132 263.524 213.047 263.439 213.047 263.266V258.275Z" fill="#35767D"/>
<path d="M219.926 261.3L219.323 259.554C219.231 259.272 219.115 258.774 219.115 258.774H219.1C219.1 258.774 218.976 259.272 218.883 259.554L218.275 261.3H219.926ZM218.636 258.227C218.683 258.079 218.776 258.018 218.923 258.018H219.292C219.431 258.018 219.532 258.079 219.578 258.227L221.367 263.228C221.428 263.407 221.343 263.524 221.16 263.524H220.896C220.75 263.524 220.656 263.452 220.611 263.312L220.124 261.94H218.074L217.596 263.312C217.559 263.452 217.456 263.524 217.319 263.524H217.056C216.864 263.524 216.786 263.407 216.848 263.228L218.636 258.227Z" fill="#35767D"/>
<path d="M222.246 258.275C222.246 258.104 222.331 258.019 222.499 258.019H222.793C222.941 258.019 223.025 258.065 223.102 258.191L225.423 261.597C225.615 261.895 225.87 262.392 225.87 262.392H225.886C225.886 262.392 225.839 261.903 225.839 261.597V258.275C225.839 258.104 225.931 258.019 226.093 258.019H226.341C226.51 258.019 226.597 258.104 226.597 258.275V263.265C226.597 263.439 226.51 263.525 226.341 263.525H226.047C225.909 263.525 225.817 263.477 225.747 263.351L223.418 259.951C223.225 259.648 222.97 259.148 222.97 259.148H222.955C222.955 259.148 223.002 259.64 223.002 259.951V263.265C223.002 263.439 222.918 263.525 222.746 263.525H222.499C222.331 263.525 222.246 263.439 222.246 263.265V258.275Z" fill="#35767D"/>
<path d="M229.148 261.191L227.498 258.32C227.398 258.151 227.475 258.018 227.676 258.018H227.984C228.123 258.018 228.214 258.072 228.276 258.198L229.195 259.828C229.355 260.138 229.527 260.52 229.527 260.52H229.54C229.54 260.52 229.703 260.138 229.872 259.828L230.783 258.198C230.844 258.072 230.936 258.018 231.075 258.018H231.384C231.584 258.018 231.662 258.151 231.562 258.32L229.911 261.191V263.266C229.911 263.439 229.818 263.524 229.655 263.524H229.402C229.242 263.524 229.148 263.439 229.148 263.266V261.191Z" fill="#35767D"/>
<path d="M272.725 243.106H276.121C276.108 242.71 276.087 242.318 276.052 241.932H272.643C272.685 242.317 272.709 242.71 272.725 243.106Z" fill="#35767D"/>
<path d="M256.581 260.162C248.681 260.162 242.107 254.401 240.701 246.786H237.254C238.703 256.302 246.818 263.61 256.581 263.61C266.345 263.61 274.458 256.302 275.905 246.786H272.459C271.054 254.401 264.481 260.162 256.581 260.162Z" fill="#35767D"/>
<path d="M256.581 227.319C264.481 227.319 271.054 233.08 272.459 240.692H275.905C274.458 231.178 266.345 223.871 256.581 223.871C246.818 223.871 238.703 231.178 237.254 240.692H240.701C242.107 233.08 248.681 227.319 256.581 227.319Z" fill="#35767D"/>
<path d="M272.725 244.391C272.708 244.78 272.685 245.167 272.643 245.55H276.052C276.087 245.167 276.108 244.78 276.12 244.391H272.725Z" fill="#35767D"/>
<path d="M240.65 243.106H237.254C237.267 242.71 237.289 242.318 237.325 241.932H240.733C240.69 242.317 240.667 242.71 240.65 243.106Z" fill="#35767D"/>
<path d="M240.65 244.391C240.667 244.78 240.69 245.167 240.731 245.55H237.325C237.289 245.167 237.267 244.78 237.254 244.391H240.65Z" fill="#35767D"/>
<path d="M27.5477 249.134C30.6637 249.134 33.233 246.523 33.233 241.971C33.233 237.621 30.9357 234.81 27.665 234.81C24.7037 234.81 21.9797 236.909 21.9797 242.013C21.9797 245.574 23.809 249.134 27.5477 249.134ZM18.3184 224.009H22.0957V233.149C22.0957 234.138 22.0157 234.851 22.0157 234.851H22.0957C22.0957 234.851 23.769 231.447 28.405 231.447C33.6997 231.447 37.049 235.721 37.049 241.934C37.049 248.302 33.2704 252.418 28.0917 252.418C23.6917 252.418 21.901 248.977 21.901 248.977H21.8224C21.8224 248.977 21.901 249.61 21.901 250.481V251.943H18.3184V224.009Z" fill="#2C8F4A"/>
<path d="M43.6295 231.922H47.4068V251.943H43.6295V231.922ZM43.5908 224.009H47.4055V227.926H43.5908V224.009Z" fill="#2C8F4A"/>
<path d="M64.464 249.095C68.2014 249.095 71.24 246.088 71.24 241.894C71.24 237.738 68.2014 234.771 64.464 234.771C60.7654 234.771 57.6867 237.738 57.6867 241.894C57.6867 246.088 60.7654 249.095 64.464 249.095ZM64.464 231.447C70.344 231.447 75.096 235.84 75.096 241.894C75.096 247.986 70.344 252.419 64.464 252.419C58.5827 252.419 53.832 247.986 53.832 241.894C53.832 235.84 58.5827 231.447 64.464 231.447Z" fill="#2C8F4A"/>
<path d="M87.4402 249.333C90.6335 249.333 92.6962 245.93 92.6962 242.962V242.33H91.7229C88.8802 242.33 83.7402 242.527 83.7402 246.127C83.7402 247.75 84.9855 249.333 87.4402 249.333ZM91.8015 239.442H92.6575V239.083C92.6575 235.801 90.8282 234.693 88.3349 234.693C85.2975 234.693 82.8455 236.631 82.8455 236.631L81.2869 233.821C81.2869 233.821 84.1309 231.447 88.6469 231.447C93.6309 231.447 96.4375 234.217 96.4375 239.282V251.943H92.9309V250.046C92.9309 249.134 93.0082 248.462 93.0082 248.462H92.9309C92.9309 248.462 91.3335 252.418 86.6229 252.418C83.2349 252.418 79.9229 250.322 79.9229 246.325C79.9229 239.717 88.4922 239.442 91.8015 239.442Z" fill="#2C8F4A"/>
<path d="M117.504 241.498C117.504 236.277 115.012 234.773 111.934 234.773C108.506 234.773 106.561 237.303 106.561 241.379C106.561 245.534 108.741 248.383 112.285 248.383C115.012 248.383 117.504 246.721 117.504 241.498ZM111.196 256.931C114.621 256.931 117.426 255.387 117.426 251.311V249.85C117.426 249.214 117.465 248.582 117.465 248.582H117.388C116.218 250.559 114.388 251.707 111.546 251.707C106.054 251.707 102.745 247.235 102.745 241.459C102.745 235.721 105.9 231.447 111.35 231.447C116.101 231.447 117.542 234.417 117.542 234.417H117.62C117.62 234.417 117.581 234.139 117.581 233.783V231.923H121.204V251.114C121.204 257.722 116.257 260.254 111.272 260.254C108.897 260.254 106.444 259.582 104.534 258.593L105.781 255.585C105.781 255.585 108.234 256.931 111.196 256.931Z" fill="#2C8F4A"/>
<path d="M129.07 231.923H132.73V235.404C132.73 236.235 132.652 236.91 132.652 236.91H132.73C133.626 233.98 135.924 231.686 138.961 231.686C139.468 231.686 139.934 231.764 139.934 231.764V235.563C139.934 235.563 139.429 235.444 138.846 235.444C136.43 235.444 134.21 237.186 133.316 240.152C132.965 241.3 132.848 242.528 132.848 243.754V251.944H129.07V231.923Z" fill="#2C8F4A"/>
<path d="M145.621 231.922H149.398V251.943H145.621V231.922ZM145.582 224.009H149.398V227.926H145.582V224.009Z" fill="#2C8F4A"/>
<path d="M166.377 231.29C171.557 231.29 174.012 234.295 174.012 234.295L171.829 237.738C171.829 237.738 169.765 235.563 166.65 235.563C162.988 235.563 160.613 238.371 160.613 241.815C160.613 245.218 163.029 248.144 166.805 248.144C170.154 248.144 172.648 245.574 172.648 245.574L174.554 249.134C174.554 249.134 171.712 252.419 166.377 252.419C159.794 252.419 155.589 247.71 155.589 241.854C155.589 236.118 159.794 231.29 166.377 231.29Z" fill="#2C8F4A"/>
<path d="M192.703 239.361C192.624 236.631 190.949 235.167 188.769 235.167C186.237 235.167 184.485 236.75 184.019 239.361H192.703ZM188.885 231.29C194.609 231.29 197.685 235.523 197.685 240.863C197.685 241.458 197.569 242.805 197.569 242.805H183.863C184.175 246.325 186.86 248.145 189.82 248.145C193.013 248.145 195.545 245.93 195.545 245.93L197.453 249.53C197.453 249.53 194.415 252.418 189.469 252.418C182.888 252.418 178.799 247.591 178.799 241.854C178.799 235.642 182.965 231.29 188.885 231.29Z" fill="#2C8F4A"/>
<path d="M203.723 231.764H208.473V235.246C208.473 235.998 208.395 236.671 208.395 236.671H208.473C209.369 233.783 211.745 231.487 214.783 231.487C215.249 231.487 215.677 231.566 215.677 231.566V236.512C215.677 236.512 215.172 236.434 214.511 236.434C212.407 236.434 210.031 237.659 209.096 240.667C208.785 241.656 208.668 242.764 208.668 243.952V251.944H203.723V231.764Z" fill="#2C8F4A"/>
<path d="M221.83 236.077H219.26V232.08H221.946V226.265H226.777V232.08H231.294V236.077H226.777V243.912C226.777 247.234 229.345 247.71 230.71 247.71C231.254 247.71 231.605 247.632 231.605 247.632V252.022C231.605 252.022 231.021 252.144 230.085 252.144C227.321 252.144 221.83 251.31 221.83 244.545V236.077Z" fill="#2C8F4A"/>
<path d="M273.211 231.899C277.739 223.433 272.572 226.929 270.342 229.877L256.402 247.344C256.012 247.701 255.558 247.871 254.91 247.344C254.188 246.761 245.567 239.821 245.567 239.821C243.983 238.539 242.871 239.796 244.134 241.647L253.199 254.923C254.464 256.773 256.5 256.765 257.751 254.905C257.751 254.905 268.008 240.4 273.211 231.899Z" fill="#2C8F4A"/>
<path d="M256.826 266.998C256.826 281.621 251.051 282.666 231.335 282.666H8.95508V7.5567H256.826V220.066" stroke="#35767D" stroke-width="1.33333"/>
</g>
</g>
<defs>
<clipPath id="clip0_20_3018">
<rect width="280.889" height="290.667" fill="white"/>
</clipPath>
</defs>
</svg>
