<svg width="302" height="367" viewBox="0 0 302 367" fill="none" xmlns="http://www.w3.org/2000/svg">
<mask id="mask0_16_3028" style="mask-type:alpha" maskUnits="userSpaceOnUse" x="194" y="0" width="108" height="366">
<path d="M194.848 0H301.628V365.655H194.848V0Z" fill="#002F35"/>
</mask>
<g mask="url(#mask0_16_3028)">
<path d="M370.283 284.828C370.283 284.828 370.283 284.828 370.283 285.284V303.55V321.816V325.012C370.283 346.475 359.792 364.284 346.095 365.654H221.95C208.253 364.284 197.762 346.475 197.762 325.012V321.816V303.55V284.828V281.631C197.762 280.718 197.762 279.805 197.762 279.348C197.762 278.891 197.762 278.435 197.762 277.978V277.521V241.446C197.762 224.094 208.253 204.458 221.95 196.695C232.441 190.759 243.806 187.562 254.88 187.562H268.285C269.743 187.562 270.908 185.736 270.908 183.452C270.908 180.713 269.743 178.886 268.285 178.886H254.88C243.806 178.886 232.441 175.689 221.95 169.753C208.253 161.99 197.762 142.354 197.762 125.002V88.9268C197.762 88.4701 197.762 88.0135 197.762 87.5569C197.762 86.6436 197.762 85.7303 197.762 84.817V81.6205V62.898V44.6322V41.4357C197.762 19.9734 208.253 2.16417 221.95 0.79425H346.095C359.792 2.16417 370.283 19.9734 370.283 41.4357V44.6322V62.898V81.6205V84.817V85.2736C370.283 104.909 358.917 119.979 346.386 118.152L269.743 102.626C268.285 102.626 266.828 103.996 266.828 106.736C266.537 109.019 267.703 110.846 269.16 111.302L339.975 125.915C360.374 130.482 370.574 156.967 370.574 183.452C370.574 209.481 360.374 235.967 339.975 240.99L269.16 255.146C267.703 255.602 266.537 257.429 266.828 260.169C266.828 262.452 268.285 264.279 269.743 263.822L346.386 248.296C358.917 246.469 370.283 261.539 370.283 281.175V281.631V284.828Z" fill="#99FF00"/>
</g>
<path d="M0 54.0342C0 24.1919 24.192 0 54.0342 0H91V367H54.0342C24.192 367 0 342.808 0 312.966V54.0342Z" fill="#99FF00"/>
<path d="M189 312.966C189 342.808 164.808 367 134.966 367L98 367L98 2.72833e-06L134.966 -1.46627e-06C164.808 -4.85255e-06 189 24.1919 189 54.0342L189 312.966Z" fill="#99FF00"/>
<ellipse cx="94.5" cy="41" rx="17.5" ry="29" fill="#002F35"/>
</svg>
