<svg width="302" height="300" viewBox="0 0 302 300" fill="none" xmlns="http://www.w3.org/2000/svg">
<mask id="mask0_3_4081" style="mask-type:alpha" maskUnits="userSpaceOnUse" x="194" y="0" width="108" height="299">
<path d="M194.848 0.222168H301.628V298.422H194.848V0.222168Z" fill="#002F35"/>
</mask>
<g mask="url(#mask0_3_4081)">
<path d="M370.283 232.506C370.283 232.506 370.283 232.506 370.283 232.878V247.775V262.671V265.278C370.283 282.781 359.792 297.305 346.095 298.422H221.95C208.253 297.305 197.762 282.781 197.762 265.278V262.671V247.775V232.506V229.899C197.762 229.154 197.762 228.41 197.762 228.037C197.762 227.665 197.762 227.292 197.762 226.92V226.548V197.128C197.762 182.976 208.253 166.963 221.95 160.632C232.441 155.79 243.806 153.184 254.88 153.184H268.285C269.743 153.184 270.908 151.694 270.908 149.832C270.908 147.598 269.743 146.108 268.285 146.108H254.88C243.806 146.108 232.441 143.501 221.95 138.66C208.253 132.329 197.762 116.316 197.762 102.164V72.7441C197.762 72.3717 197.762 71.9993 197.762 71.6269C197.762 70.8821 197.762 70.1373 197.762 69.3925V66.7856V51.517V36.6208V34.0139C197.762 16.5109 208.253 1.98707 221.95 0.869873H346.095C359.792 1.98707 370.283 16.5109 370.283 34.0139V36.6208V51.517V66.7856V69.3925V69.7649C370.283 85.7783 358.917 98.0676 346.386 96.578L269.743 83.9163C268.285 83.9163 266.828 85.0335 266.828 87.2679C266.537 89.1299 267.703 90.6196 269.16 90.992L339.975 102.909C360.374 106.633 370.574 128.232 370.574 149.832C370.574 171.059 360.374 192.659 339.975 196.755L269.16 208.3C267.703 208.672 266.537 210.162 266.828 212.396C266.828 214.258 268.285 215.748 269.743 215.375L346.386 202.714C358.917 201.224 370.283 213.513 370.283 229.527V229.899V232.506Z" fill="#99FF00"/>
</g>
<path d="M0 54.2568C0 24.4145 24.192 0.222656 54.0342 0.222656H91.1982V299.519H54.0342C24.1919 299.519 0 275.327 0 245.485V54.2568Z" fill="#99FF00"/>
<path d="M188.773 245.485C188.773 275.328 164.581 299.52 134.739 299.52L97.5753 299.52L97.5752 0.223124L134.739 0.22312C164.581 0.223117 188.773 24.4151 188.773 54.2574L188.773 245.485Z" fill="#99FF00"/>
<ellipse cx="94.574" cy="33.5406" rx="17.2889" ry="23.0387" fill="#002F35"/>
</svg>
