<svg width="307" height="302" viewBox="0 0 307 302" fill="none" xmlns="http://www.w3.org/2000/svg">
<mask id="mask0_29_3018" style="mask-type:alpha" maskUnits="userSpaceOnUse" x="198" y="0" width="109" height="301">
<path d="M198.316 0H306.998V300.893H198.316V0Z" fill="#002F35"/>
</mask>
<g mask="url(#mask0_29_3018)">
<path d="M376.874 234.381C376.874 234.381 376.874 234.381 376.874 234.757V249.788V264.819V267.449C376.874 285.11 366.196 299.765 352.255 300.892H225.9C211.959 299.765 201.281 285.11 201.281 267.449V264.819V249.788V234.381V231.751C201.281 231 201.281 230.248 201.281 229.872C201.281 229.496 201.281 229.121 201.281 228.745V228.369V198.683C201.281 184.404 211.959 168.246 225.9 161.858C236.578 156.973 248.145 154.343 259.417 154.343H273.061C274.544 154.343 275.73 152.84 275.73 150.961C275.73 148.706 274.544 147.203 273.061 147.203H259.417C248.145 147.203 236.578 144.573 225.9 139.688C211.959 133.3 201.281 117.142 201.281 102.863V73.1769C201.281 72.8011 201.281 72.4253 201.281 72.0496C201.281 71.298 201.281 70.5465 201.281 69.795V67.1646V51.7581V36.7274V34.097C201.281 16.4359 211.959 1.78092 225.9 0.653625H352.255C366.196 1.78092 376.874 16.4359 376.874 34.097V36.7274V51.7581V67.1646V69.795V70.1707C376.874 86.3288 365.306 98.7291 352.552 97.226L274.544 84.4499C273.061 84.4499 271.577 85.5772 271.577 87.8318C271.281 89.7107 272.467 91.2137 273.95 91.5895L346.026 103.614C366.789 107.372 377.17 129.166 377.17 150.961C377.17 172.38 366.789 194.174 346.026 198.308L273.95 209.956C272.467 210.332 271.281 211.835 271.577 214.09C271.577 215.969 273.061 217.472 274.544 217.096L352.552 204.32C365.306 202.817 376.874 215.217 376.874 231.375V231.751V234.381Z" fill="#99FF00"/>
</g>
<path d="M0 54.0342C0 24.192 24.192 0 54.0342 0H93V302H54.0342C24.192 302 0 277.808 0 247.966V54.0342Z" fill="#99FF00"/>
<path d="M192 247.966C192 277.808 167.808 302 137.966 302L100 302L100 6.07239e-06L137.966 1.83967e-06C167.808 -1.48738e-06 192 24.1919 192 54.0342L192 247.966Z" fill="#99FF00"/>
<ellipse cx="96.5" cy="34" rx="17.5" ry="24" fill="#002F35"/>
</svg>
