<svg width="302" height="358" viewBox="0 0 302 358" fill="none" xmlns="http://www.w3.org/2000/svg">
<mask id="mask0_16_3027" style="mask-type:alpha" maskUnits="userSpaceOnUse" x="194" y="0" width="108" height="357">
<path d="M194.848 0H301.628V356.688H194.848V0Z" fill="#002F35"/>
</mask>
<g mask="url(#mask0_16_3027)">
<path d="M370.283 277.843C370.283 277.843 370.283 277.843 370.283 278.288V296.106V313.924V317.042C370.283 337.978 359.792 355.351 346.095 356.687H221.95C208.253 355.351 197.762 337.978 197.762 317.042V313.924V296.106V277.843V274.725C197.762 273.834 197.762 272.943 197.762 272.497C197.762 272.052 197.762 271.607 197.762 271.161V270.716V235.525C197.762 218.598 208.253 199.444 221.95 191.872C232.441 186.081 243.806 182.963 254.88 182.963H268.285C269.743 182.963 270.908 181.181 270.908 178.954C270.908 176.281 269.743 174.499 268.285 174.499H254.88C243.806 174.499 232.441 171.381 221.95 165.59C208.253 158.018 197.762 138.863 197.762 121.936V86.7461C197.762 86.3006 197.762 85.8551 197.762 85.4097C197.762 84.5188 197.762 83.6279 197.762 82.737V79.6189V61.3556V43.5377V40.4196C197.762 19.4836 208.253 2.1111 221.95 0.77478H346.095C359.792 2.1111 370.283 19.4836 370.283 40.4196V43.5377V61.3556V79.6189V82.737V83.1825C370.283 102.337 358.917 117.036 346.386 115.255L269.743 100.109C268.285 100.109 266.828 101.446 266.828 104.118C266.537 106.346 267.703 108.128 269.16 108.573L339.975 122.827C360.374 127.282 370.574 153.118 370.574 178.954C370.574 204.344 360.374 230.18 339.975 235.08L269.16 248.889C267.703 249.334 266.537 251.116 266.828 253.789C266.828 256.016 268.285 257.798 269.743 257.352L346.386 242.207C358.917 240.425 370.283 255.125 370.283 274.279V274.725V277.843Z" fill="#99FF00"/>
</g>
<path d="M0 54.0342C0 24.192 24.192 0 54.0342 0H91V358H54.0342C24.192 358 0 333.808 0 303.966V54.0342Z" fill="#99FF00"/>
<path d="M189 303.966C189 333.808 164.808 358 134.966 358L98 358L98 1.87658e-05L134.966 1.45712e-05C164.808 1.11849e-05 189 24.192 189 54.0342L189 303.966Z" fill="#99FF00"/>
<ellipse cx="94.5" cy="40" rx="17.5" ry="28" fill="#002F35"/>
</svg>
