<svg width="302" height="344" viewBox="0 0 302 344" fill="none" xmlns="http://www.w3.org/2000/svg">
<mask id="mask0_16_3026" style="mask-type:alpha" maskUnits="userSpaceOnUse" x="194" y="0" width="108" height="343">
<path d="M194.848 0H301.628V342.739H194.848V0Z" fill="#002F35"/>
</mask>
<g mask="url(#mask0_16_3026)">
<path d="M370.283 266.977C370.283 266.977 370.283 266.977 370.283 267.405V284.527V301.648V304.644C370.283 324.761 359.792 341.454 346.095 342.738H221.95C208.253 341.454 197.762 324.761 197.762 304.644V301.648V284.527V266.977V263.981C197.762 263.125 197.762 262.269 197.762 261.841C197.762 261.413 197.762 260.985 197.762 260.557V260.129V226.315C197.762 210.05 208.253 191.645 221.95 184.368C232.441 178.804 243.806 175.808 254.88 175.808H268.285C269.743 175.808 270.908 174.095 270.908 171.955C270.908 169.387 269.743 167.675 268.285 167.675H254.88C243.806 167.675 232.441 164.679 221.95 159.115C208.253 151.838 197.762 133.433 197.762 117.168V83.3537C197.762 82.9257 197.762 82.4976 197.762 82.0696C197.762 81.2136 197.762 80.3575 197.762 79.5015V76.5053V58.9561V41.8351V38.8389C197.762 18.7216 208.253 2.02851 221.95 0.744446H346.095C359.792 2.02851 370.283 18.7216 370.283 38.8389V41.8351V58.9561V76.5053V79.5015V79.9295C370.283 98.3347 358.917 112.46 346.386 110.747L269.743 96.1945C268.285 96.1945 266.828 97.4786 266.828 100.047C266.537 102.187 267.703 103.899 269.16 104.327L339.975 118.024C360.374 122.304 370.574 147.13 370.574 171.955C370.574 196.353 360.374 221.178 339.975 225.887L269.16 239.156C267.703 239.584 266.537 241.296 266.828 243.864C266.828 246.004 268.285 247.716 269.743 247.288L346.386 232.735C358.917 231.023 370.283 245.148 370.283 263.553V263.981V266.977Z" fill="#99FF00"/>
</g>
<path d="M0 54.0342C0 24.192 24.192 0 54.0342 0H91V344H54.0342C24.192 344 0 319.808 0 289.966V54.0342Z" fill="#99FF00"/>
<path d="M189 289.966C189 319.808 164.808 344 134.966 344L98 344L98 1.56097e-05L134.966 1.14151e-05C164.808 8.02886e-06 189 24.192 189 54.0342L189 289.966Z" fill="#99FF00"/>
<ellipse cx="94.5" cy="38.5" rx="17.5" ry="26.5" fill="#002F35"/>
</svg>
