<svg width="302" height="378" viewBox="0 0 302 378" fill="none" xmlns="http://www.w3.org/2000/svg">
<mask id="mask0_16_3029" style="mask-type:alpha" maskUnits="userSpaceOnUse" x="194" y="0" width="108" height="377">
<path d="M194.848 0H301.628V376.614H194.848V0Z" fill="#002F35"/>
</mask>
<g mask="url(#mask0_16_3029)">
<path d="M370.283 293.365C370.283 293.365 370.283 293.365 370.283 293.835V312.648V331.462V334.754C370.283 356.86 359.792 375.203 346.095 376.614H221.95C208.253 375.203 197.762 356.86 197.762 334.754V331.462V312.648V293.365V290.072C197.762 289.132 197.762 288.191 197.762 287.721C197.762 287.25 197.762 286.78 197.762 286.31V285.839V248.683C197.762 230.811 208.253 210.586 221.95 202.591C232.441 196.476 243.806 193.184 254.88 193.184H268.285C269.743 193.184 270.908 191.303 270.908 188.951C270.908 186.129 269.743 184.248 268.285 184.248H254.88C243.806 184.248 232.441 180.955 221.95 174.841C208.253 166.845 197.762 146.621 197.762 128.748V91.5922C197.762 91.1219 197.762 90.6516 197.762 90.1812C197.762 89.2406 197.762 88.2999 197.762 87.3593V84.0669V64.7833V45.97V42.6777C197.762 20.5721 208.253 2.22909 221.95 0.818115H346.095C359.792 2.22909 370.283 20.5721 370.283 42.6777V45.97V64.7833V84.0669V87.3593V87.8296C370.283 108.054 358.917 123.575 346.386 121.693L269.743 105.702C268.285 105.702 266.828 107.113 266.828 109.935C266.537 112.287 267.703 114.168 269.16 114.639L339.975 129.689C360.374 134.392 370.574 161.672 370.574 188.951C370.574 215.76 360.374 243.039 339.975 248.213L269.16 262.793C267.703 263.264 266.537 265.145 266.828 267.967C266.828 270.319 268.285 272.2 269.743 271.73L346.386 255.738C358.917 253.857 370.283 269.378 370.283 289.602V290.072V293.365Z" fill="#99FF00"/>
</g>
<path d="M0 54.0342C0 24.192 24.192 0 54.0342 0H91V378H54.0342C24.192 378 0 353.808 0 323.966V54.0342Z" fill="#99FF00"/>
<path d="M189 323.966C189 353.808 164.808 378 134.966 378L98 378L98 3.56571e-06L134.966 -6.28893e-07C164.808 -4.01517e-06 189 24.1919 189 54.0342L189 323.966Z" fill="#99FF00"/>
<ellipse cx="94.5" cy="42" rx="17.5" ry="30" fill="#002F35"/>
</svg>
