<svg width="307" height="378" viewBox="0 0 307 378" fill="none" xmlns="http://www.w3.org/2000/svg">
<mask id="mask0_16_3030" style="mask-type:alpha" maskUnits="userSpaceOnUse" x="198" y="0" width="109" height="477">
<path d="M198.316 0H306.998V376.614H198.316V0Z" fill="#002F35"/>
</mask>
<g mask="url(#mask0_16_3030)">
<path d="M376.874 293.365C376.874 293.365 376.874 293.365 376.874 293.835V312.648V331.462V334.754C376.874 356.86 366.196 375.203 352.255 376.614H225.9C211.959 375.203 201.281 356.86 201.281 334.754V331.462V312.648V293.365V290.072C201.281 289.132 201.281 288.191 201.281 287.721C201.281 287.25 201.281 286.78 201.281 286.31V285.839V248.683C201.281 230.811 211.959 210.586 225.9 202.591C236.578 196.476 248.145 193.184 259.417 193.184H273.061C274.544 193.184 275.73 191.303 275.73 188.951C275.73 186.129 274.544 184.248 273.061 184.248H259.417C248.145 184.248 236.578 180.955 225.9 174.841C211.959 166.845 201.281 146.621 201.281 128.748V91.5922C201.281 91.1219 201.281 90.6516 201.281 90.1812C201.281 89.2406 201.281 88.2999 201.281 87.3593V84.0669V64.7833V45.97V42.6777C201.281 20.5721 211.959 2.22909 225.9 0.818115H352.255C366.196 2.22909 376.874 20.5721 376.874 42.6777V45.97V64.7833V84.0669V87.3593V87.8296C376.874 108.054 365.306 123.575 352.552 121.693L274.544 105.702C273.061 105.702 271.577 107.113 271.577 109.935C271.281 112.287 272.467 114.168 273.95 114.639L346.026 129.689C366.789 134.392 377.17 161.672 377.17 188.951C377.17 215.76 366.789 243.039 346.026 248.213L273.95 262.793C272.467 263.264 271.281 265.145 271.577 267.967C271.577 270.319 273.061 272.2 274.544 271.73L352.552 255.738C365.306 253.857 376.874 269.378 376.874 289.602V290.072V293.365Z" fill="#99FF00"/>
</g>
<path d="M0 54.0342C0 24.192 24.192 0 54.0342 0H93V378H54.0342C24.192 378 0 353.808 0 323.966V54.0342Z" fill="#99FF00"/>
<path d="M192 323.966C192 353.808 167.808 378 137.966 378L100 378L100 3.49658e-06L137.966 -7.36137e-07C167.808 -4.06319e-06 192 24.1919 192 54.0342L192 323.966Z" fill="#99FF00"/>
<ellipse cx="96.5" cy="42" rx="17.5" ry="30" fill="#002F35"/>
</svg>
