<svg width="299" height="61" viewBox="0 0 299 61" fill="none" xmlns="http://www.w3.org/2000/svg">
<path d="M16.302 48.513C13.49 48.513 11.02 47.639 8.892 45.891C6.802 44.143 5.168 41.692 3.99 38.538C2.85 35.346 2.28 31.584 2.28 27.252C2.28 23.072 2.907 19.424 4.161 16.308C5.453 13.154 7.163 10.722 9.291 9.012C11.457 7.264 13.851 6.39 16.473 6.39C18.031 6.39 19.399 6.542 20.577 6.846C21.755 7.112 22.8 7.473 23.712 7.929C24.168 8.195 24.396 8.594 24.396 9.126L24.567 17.79C24.567 18.436 24.339 18.759 23.883 18.759C23.465 18.759 23.199 18.512 23.085 18.018L22.515 15.909C21.717 12.945 20.786 10.893 19.722 9.753C18.696 8.613 17.461 8.043 16.017 8.043C13.357 8.043 11.134 9.696 9.348 13.002C7.6 16.27 6.726 21.02 6.726 27.252C6.726 31.508 7.163 35.099 8.037 38.025C8.949 40.951 10.108 43.155 11.514 44.637C12.958 46.119 14.478 46.86 16.074 46.86C17.784 46.86 19.152 46.328 20.178 45.264C21.242 44.2 22.135 42.148 22.857 39.108L23.541 36.315C23.655 35.745 23.959 35.498 24.453 35.574C24.871 35.65 25.08 35.973 25.08 36.543L24.852 45.777C24.852 46.309 24.605 46.708 24.111 46.974C23.199 47.43 22.116 47.791 20.862 48.057C19.646 48.361 18.126 48.513 16.302 48.513ZM37.8177 48.513C35.8797 48.513 34.1317 47.867 32.5737 46.575C31.0537 45.245 29.8377 43.44 28.9257 41.16C28.0137 38.88 27.5577 36.334 27.5577 33.522C27.5577 30.71 28.0137 28.183 28.9257 25.941C29.8377 23.699 31.0727 21.913 32.6307 20.583C34.1887 19.253 35.9177 18.588 37.8177 18.588C39.7557 18.588 41.4847 19.253 43.0047 20.583C44.5627 21.913 45.7977 23.699 46.7097 25.941C47.6217 28.183 48.0777 30.71 48.0777 33.522C48.0777 36.334 47.6217 38.88 46.7097 41.16C45.8357 43.44 44.6197 45.245 43.0617 46.575C41.5037 47.867 39.7557 48.513 37.8177 48.513ZM37.8177 47.088C41.7697 47.088 43.7457 42.566 43.7457 33.522C43.7457 24.516 41.7697 20.013 37.8177 20.013C33.8657 20.013 31.8897 24.516 31.8897 33.522C31.8897 42.566 33.8657 47.088 37.8177 47.088ZM49.5143 48C49.0583 48 48.8303 47.791 48.8303 47.373C48.8303 46.993 49.0393 46.765 49.4573 46.689L50.2553 46.575C51.0533 46.461 51.6423 46.233 52.0223 45.891C52.4023 45.549 52.5923 44.979 52.5923 44.181V11.52C52.5923 10.836 52.4783 10.361 52.2503 10.095C52.0603 9.829 51.6993 9.677 51.1673 9.639L49.8563 9.468C49.4383 9.392 49.2293 9.164 49.2293 8.784C49.2293 8.404 49.4383 8.176 49.8563 8.1C50.9203 7.872 51.8323 7.606 52.5923 7.302C53.3523 6.998 53.9793 6.694 54.4733 6.39C55.0813 6.01 55.5373 5.82 55.8413 5.82C56.2593 5.82 56.4683 6.124 56.4683 6.732V44.181C56.4683 44.979 56.5823 45.549 56.8103 45.891C57.0763 46.195 57.6083 46.404 58.4063 46.518L59.7173 46.689C60.1353 46.765 60.3443 46.993 60.3443 47.373C60.3443 47.791 60.1163 48 59.6603 48H49.5143ZM60.8987 48C60.4427 48 60.2147 47.791 60.2147 47.373C60.2147 46.993 60.4237 46.765 60.8417 46.689L61.6397 46.575C62.4377 46.461 63.0267 46.233 63.4067 45.891C63.7867 45.549 63.9767 44.979 63.9767 44.181V11.52C63.9767 10.836 63.8627 10.361 63.6347 10.095C63.4447 9.829 63.0837 9.677 62.5517 9.639L61.2407 9.468C60.8227 9.392 60.6137 9.164 60.6137 8.784C60.6137 8.404 60.8227 8.176 61.2407 8.1C62.3047 7.872 63.2167 7.606 63.9767 7.302C64.7367 6.998 65.3637 6.694 65.8577 6.39C66.4657 6.01 66.9217 5.82 67.2257 5.82C67.6437 5.82 67.8527 6.124 67.8527 6.732V44.181C67.8527 44.979 67.9667 45.549 68.1947 45.891C68.4607 46.195 68.9927 46.404 69.7907 46.518L71.1017 46.689C71.5197 46.765 71.7287 46.993 71.7287 47.373C71.7287 47.791 71.5007 48 71.0447 48H60.8987ZM82.0871 48.513C80.2631 48.513 78.6291 47.905 77.1851 46.689C75.7411 45.473 74.5821 43.763 73.7081 41.559C72.8721 39.317 72.4541 36.733 72.4541 33.807C72.4541 30.805 72.8911 28.164 73.7651 25.884C74.6391 23.604 75.8361 21.818 77.3561 20.526C78.8761 19.234 80.5671 18.588 82.4291 18.588C84.6711 18.588 86.4761 19.519 87.8441 21.381C89.2501 23.205 89.9531 26.188 89.9531 30.33C89.9531 31.584 89.4781 32.211 88.5281 32.211H77.6981C76.9381 32.211 76.5581 32.648 76.5581 33.522C76.5581 37.55 77.1471 40.571 78.3251 42.585C79.5031 44.599 81.0041 45.606 82.8281 45.606C84.2721 45.606 85.4501 45.093 86.3621 44.067C87.2741 43.041 88.0151 41.312 88.5851 38.88C88.6991 38.462 88.9461 38.253 89.3261 38.253C89.7821 38.253 89.9531 38.633 89.8391 39.393C89.2311 42.775 88.2621 45.15 86.9321 46.518C85.6021 47.848 83.9871 48.513 82.0871 48.513ZM77.5271 30.786H83.2841C85.1081 30.786 86.0201 29.836 86.0201 27.936C86.0201 25.466 85.7161 23.528 85.1081 22.122C84.5001 20.716 83.5881 20.013 82.3721 20.013C80.8901 20.013 79.6361 20.868 78.6101 22.578C77.6221 24.288 76.9761 26.72 76.6721 29.874C76.5961 30.482 76.8811 30.786 77.5271 30.786ZM100.748 48C100.178 48 99.8934 47.791 99.8934 47.373C99.8934 47.031 100.14 46.803 100.634 46.689L101.945 46.461C103.237 46.233 103.883 45.492 103.883 44.238V10.722C103.883 9.924 103.75 9.392 103.484 9.126C103.256 8.86 102.743 8.651 101.945 8.499L100.634 8.271C100.14 8.157 99.8934 7.929 99.8934 7.587C99.8934 7.169 100.178 6.96 100.748 6.96H112.262C115.226 6.96 117.791 7.834 119.957 9.582C122.123 11.292 123.795 13.705 124.973 16.821C126.151 19.937 126.74 23.547 126.74 27.651C126.74 31.793 126.113 35.384 124.859 38.424C123.643 41.464 121.914 43.82 119.672 45.492C117.43 47.164 114.77 48 111.692 48H100.748ZM111.92 46.518C115.302 46.518 117.867 44.903 119.615 41.673C121.401 38.443 122.294 33.769 122.294 27.651C122.294 21.571 121.439 16.859 119.729 13.515C118.057 10.133 115.568 8.442 112.262 8.442C109.374 8.442 107.93 9.829 107.93 12.603V42.357C107.93 43.877 108.234 44.96 108.842 45.606C109.488 46.214 110.514 46.518 111.92 46.518ZM138.84 48.513C137.016 48.513 135.382 47.905 133.938 46.689C132.494 45.473 131.335 43.763 130.461 41.559C129.625 39.317 129.207 36.733 129.207 33.807C129.207 30.805 129.644 28.164 130.518 25.884C131.392 23.604 132.589 21.818 134.109 20.526C135.629 19.234 137.32 18.588 139.182 18.588C141.424 18.588 143.229 19.519 144.597 21.381C146.003 23.205 146.706 26.188 146.706 30.33C146.706 31.584 146.231 32.211 145.281 32.211H134.451C133.691 32.211 133.311 32.648 133.311 33.522C133.311 37.55 133.9 40.571 135.078 42.585C136.256 44.599 137.757 45.606 139.581 45.606C141.025 45.606 142.203 45.093 143.115 44.067C144.027 43.041 144.768 41.312 145.338 38.88C145.452 38.462 145.699 38.253 146.079 38.253C146.535 38.253 146.706 38.633 146.592 39.393C145.984 42.775 145.015 45.15 143.685 46.518C142.355 47.848 140.74 48.513 138.84 48.513ZM134.28 30.786H140.037C141.861 30.786 142.773 29.836 142.773 27.936C142.773 25.466 142.469 23.528 141.861 22.122C141.253 20.716 140.341 20.013 139.125 20.013C137.643 20.013 136.389 20.868 135.363 22.578C134.375 24.288 133.729 26.72 133.425 29.874C133.349 30.482 133.634 30.786 134.28 30.786ZM157.164 60.255C154.276 60.255 151.996 59.666 150.324 58.488C148.652 57.348 147.816 55.961 147.816 54.327C147.816 53.643 147.911 53.016 148.101 52.446C148.291 51.914 148.69 51.287 149.298 50.565C149.944 49.843 150.913 48.912 152.205 47.772C152.661 47.354 152.889 46.974 152.889 46.632C152.889 46.252 152.661 45.967 152.205 45.777C150.837 45.207 150.02 44.485 149.754 43.611C149.488 42.699 149.811 41.863 150.723 41.103L154.827 37.569C155.283 37.189 155.264 36.866 154.77 36.6C153.212 35.84 151.977 34.662 151.065 33.066C150.153 31.47 149.697 29.76 149.697 27.936C149.697 26.188 150.077 24.611 150.837 23.205C151.597 21.799 152.623 20.678 153.915 19.842C155.207 19.006 156.651 18.588 158.247 18.588C159.159 18.588 160.033 18.74 160.869 19.044C161.401 19.234 161.724 19.063 161.838 18.531C162.18 17.087 162.807 15.966 163.719 15.168C164.669 14.332 165.6 13.914 166.512 13.914C167.386 13.914 168.089 14.18 168.621 14.712C169.191 15.206 169.476 15.833 169.476 16.593C169.476 17.239 169.286 17.752 168.906 18.132C168.526 18.512 168.051 18.702 167.481 18.702C166.987 18.702 166.626 18.607 166.398 18.417C166.17 18.227 165.961 18.037 165.771 17.847C165.581 17.657 165.277 17.562 164.859 17.562C163.947 17.562 163.377 18.056 163.149 19.044C163.035 19.424 163.035 19.747 163.149 20.013C163.301 20.279 163.51 20.545 163.776 20.811C164.688 21.685 165.391 22.749 165.885 24.003C166.417 25.257 166.683 26.644 166.683 28.164C166.683 29.988 166.303 31.622 165.543 33.066C164.821 34.51 163.814 35.65 162.522 36.486C161.268 37.322 159.843 37.74 158.247 37.74C157.563 37.74 156.974 37.892 156.48 38.196C155.986 38.462 155.492 38.861 154.998 39.393L154.029 40.476C153.535 41.084 153.383 41.673 153.573 42.243C153.801 42.775 154.333 43.041 155.169 43.041H160.071C162.807 43.041 164.973 43.725 166.569 45.093C168.165 46.423 168.963 48.266 168.963 50.622C168.963 52.484 168.431 54.137 167.367 55.581C166.303 57.025 164.878 58.165 163.092 59.001C161.344 59.837 159.368 60.255 157.164 60.255ZM158.19 36.315C159.558 36.315 160.641 35.574 161.439 34.092C162.237 32.61 162.636 30.596 162.636 28.05C162.636 25.58 162.218 23.604 161.382 22.122C160.584 20.602 159.52 19.842 158.19 19.842C156.86 19.842 155.777 20.602 154.941 22.122C154.143 23.604 153.744 25.58 153.744 28.05C153.744 30.596 154.143 32.61 154.941 34.092C155.739 35.574 156.822 36.315 158.19 36.315ZM157.848 59.001C159.216 59.001 160.47 58.697 161.61 58.089C162.75 57.481 163.643 56.626 164.289 55.524C164.973 54.46 165.315 53.244 165.315 51.876C165.315 50.166 164.802 48.855 163.776 47.943C162.788 46.993 161.382 46.518 159.558 46.518H158.247C157.069 46.518 156.176 46.632 155.568 46.86C154.998 47.088 154.447 47.487 153.915 48.057C152.737 49.311 151.996 50.318 151.692 51.078C151.388 51.838 151.236 52.617 151.236 53.415C151.236 55.087 151.806 56.436 152.946 57.462C154.124 58.488 155.758 59.001 157.848 59.001ZM169.951 48C169.495 48 169.267 47.791 169.267 47.373C169.267 46.993 169.476 46.765 169.894 46.689L170.692 46.575C171.49 46.461 172.079 46.233 172.459 45.891C172.839 45.549 173.029 44.979 173.029 44.181V11.52C173.029 10.836 172.915 10.361 172.687 10.095C172.497 9.829 172.136 9.677 171.604 9.639L170.293 9.468C169.875 9.392 169.666 9.164 169.666 8.784C169.666 8.404 169.875 8.176 170.293 8.1C171.357 7.872 172.269 7.606 173.029 7.302C173.789 6.998 174.416 6.694 174.91 6.39C175.518 6.01 175.974 5.82 176.278 5.82C176.696 5.82 176.905 6.124 176.905 6.732V44.181C176.905 44.979 177.019 45.549 177.247 45.891C177.513 46.195 178.045 46.404 178.843 46.518L180.154 46.689C180.572 46.765 180.781 46.993 180.781 47.373C180.781 47.791 180.553 48 180.097 48H169.951ZM186.694 13.515C185.896 13.515 185.212 13.23 184.642 12.66C184.11 12.09 183.844 11.368 183.844 10.494C183.844 9.62 184.11 8.917 184.642 8.385C185.212 7.815 185.896 7.53 186.694 7.53C187.492 7.53 188.157 7.815 188.689 8.385C189.221 8.917 189.487 9.62 189.487 10.494C189.487 11.368 189.221 12.09 188.689 12.66C188.157 13.23 187.492 13.515 186.694 13.515ZM181.906 48C181.336 48 181.051 47.791 181.051 47.373C181.051 47.031 181.298 46.803 181.792 46.689L182.476 46.575C183.426 46.423 184.034 46.195 184.3 45.891C184.566 45.549 184.699 44.979 184.699 44.181V25.029C184.699 24.345 184.585 23.889 184.357 23.661C184.167 23.395 183.806 23.224 183.274 23.148L182.077 22.977C181.583 22.939 181.336 22.73 181.336 22.35C181.336 22.046 181.64 21.837 182.248 21.723C183.426 21.533 184.376 21.229 185.098 20.811C185.82 20.393 186.523 19.88 187.207 19.272C187.549 18.93 187.834 18.759 188.062 18.759C188.404 18.759 188.575 18.987 188.575 19.443V44.181C188.575 44.979 188.689 45.549 188.917 45.891C189.145 46.233 189.582 46.442 190.228 46.518L191.653 46.689C192.071 46.765 192.28 46.974 192.28 47.316C192.28 47.772 191.995 48 191.425 48H181.906ZM202.231 48C201.661 48 201.376 47.791 201.376 47.373C201.376 47.031 201.623 46.803 202.117 46.689L203.428 46.461C204.226 46.309 204.739 46.1 204.967 45.834C205.233 45.568 205.366 45.036 205.366 44.238V10.722C205.366 9.924 205.233 9.392 204.967 9.126C204.739 8.86 204.226 8.651 203.428 8.499L202.117 8.271C201.623 8.157 201.376 7.929 201.376 7.587C201.376 7.169 201.661 6.96 202.231 6.96H221.383C222.257 6.96 222.732 7.397 222.808 8.271L223.264 17.733C223.34 18.379 223.093 18.702 222.523 18.702C222.067 18.702 221.801 18.455 221.725 17.961L221.383 15.852C220.965 13.268 220.11 11.387 218.818 10.209C217.526 8.993 215.74 8.385 213.46 8.385C211.94 8.385 210.876 8.613 210.268 9.069C209.698 9.487 209.413 10.247 209.413 11.349V25.086C209.413 25.618 209.679 25.884 210.211 25.884H213.061C214.733 25.884 215.759 24.991 216.139 23.205L216.709 20.355C216.861 19.785 217.184 19.538 217.678 19.614C218.096 19.69 218.305 20.013 218.305 20.583V33.408C218.305 33.978 218.096 34.301 217.678 34.377C217.184 34.453 216.861 34.206 216.709 33.636L216.139 30.843C215.873 29.513 215.493 28.639 214.999 28.221C214.543 27.803 213.878 27.594 213.004 27.594H210.211C209.679 27.594 209.413 27.86 209.413 28.392V42.699C209.413 44.067 209.755 45.055 210.439 45.663C211.161 46.271 212.453 46.575 214.315 46.575C216.215 46.575 217.83 46.1 219.16 45.15C220.528 44.162 221.478 42.338 222.01 39.678L222.694 36.315C222.808 35.821 223.093 35.574 223.549 35.574C224.081 35.574 224.309 35.897 224.233 36.543L223.663 46.689C223.587 47.563 223.112 48 222.238 48H202.231ZM226.121 48C225.665 48 225.437 47.791 225.437 47.373C225.437 46.993 225.646 46.765 226.064 46.689L226.862 46.575C227.66 46.461 228.249 46.233 228.629 45.891C229.009 45.549 229.199 44.979 229.199 44.181V11.52C229.199 10.836 229.085 10.361 228.857 10.095C228.667 9.829 228.306 9.677 227.774 9.639L226.463 9.468C226.045 9.392 225.836 9.164 225.836 8.784C225.836 8.404 226.045 8.176 226.463 8.1C227.527 7.872 228.439 7.606 229.199 7.302C229.959 6.998 230.586 6.694 231.08 6.39C231.688 6.01 232.144 5.82 232.448 5.82C232.866 5.82 233.075 6.124 233.075 6.732V44.181C233.075 44.979 233.189 45.549 233.417 45.891C233.683 46.195 234.215 46.404 235.013 46.518L236.324 46.689C236.742 46.765 236.951 46.993 236.951 47.373C236.951 47.791 236.723 48 236.267 48H226.121ZM242.863 13.515C242.065 13.515 241.381 13.23 240.811 12.66C240.279 12.09 240.013 11.368 240.013 10.494C240.013 9.62 240.279 8.917 240.811 8.385C241.381 7.815 242.065 7.53 242.863 7.53C243.661 7.53 244.326 7.815 244.858 8.385C245.39 8.917 245.656 9.62 245.656 10.494C245.656 11.368 245.39 12.09 244.858 12.66C244.326 13.23 243.661 13.515 242.863 13.515ZM238.075 48C237.505 48 237.22 47.791 237.22 47.373C237.22 47.031 237.467 46.803 237.961 46.689L238.645 46.575C239.595 46.423 240.203 46.195 240.469 45.891C240.735 45.549 240.868 44.979 240.868 44.181V25.029C240.868 24.345 240.754 23.889 240.526 23.661C240.336 23.395 239.975 23.224 239.443 23.148L238.246 22.977C237.752 22.939 237.505 22.73 237.505 22.35C237.505 22.046 237.809 21.837 238.417 21.723C239.595 21.533 240.545 21.229 241.267 20.811C241.989 20.393 242.692 19.88 243.376 19.272C243.718 18.93 244.003 18.759 244.231 18.759C244.573 18.759 244.744 18.987 244.744 19.443V44.181C244.744 44.979 244.858 45.549 245.086 45.891C245.314 46.233 245.751 46.442 246.397 46.518L247.822 46.689C248.24 46.765 248.449 46.974 248.449 47.316C248.449 47.772 248.164 48 247.594 48H238.075ZM249.627 48C249.057 48 248.772 47.791 248.772 47.373C248.772 47.031 249.019 46.803 249.513 46.689L250.197 46.575C250.995 46.423 251.508 46.195 251.736 45.891C252.002 45.549 252.135 44.979 252.135 44.181V25.029C252.135 24.345 252.021 23.889 251.793 23.661C251.603 23.395 251.242 23.224 250.71 23.148L249.513 22.977C249.019 22.939 248.772 22.73 248.772 22.35C248.772 22.046 249.076 21.837 249.684 21.723C250.862 21.533 251.755 21.229 252.363 20.811C253.009 20.393 253.674 19.88 254.358 19.272C254.7 18.93 254.985 18.759 255.213 18.759C255.555 18.759 255.726 18.987 255.726 19.443V22.008C255.726 22.274 255.84 22.483 256.068 22.635C256.296 22.749 256.543 22.673 256.809 22.407C258.367 20.925 259.716 19.918 260.856 19.386C262.034 18.854 263.212 18.588 264.39 18.588C265.492 18.588 266.461 18.892 267.297 19.5C268.171 20.07 268.817 20.944 269.235 22.122C269.349 22.426 269.539 22.616 269.805 22.692C270.109 22.73 270.394 22.616 270.66 22.35C272.218 20.906 273.567 19.918 274.707 19.386C275.847 18.854 277.006 18.588 278.184 18.588C279.78 18.588 281.072 19.196 282.06 20.412C283.086 21.59 283.599 23.338 283.599 25.656V44.181C283.599 44.979 283.713 45.549 283.941 45.891C284.207 46.195 284.739 46.404 285.537 46.518L286.791 46.689C287.209 46.765 287.418 46.993 287.418 47.373C287.418 47.791 287.19 48 286.734 48H276.987C276.455 48 276.189 47.791 276.189 47.373C276.189 46.993 276.398 46.765 276.816 46.689L277.614 46.575C278.488 46.461 279.058 46.233 279.324 45.891C279.59 45.549 279.723 44.979 279.723 44.181V26.283C279.723 24.421 279.381 23.11 278.697 22.35C278.051 21.59 277.158 21.21 276.018 21.21C274.878 21.21 273.833 21.571 272.883 22.293C271.971 22.977 271.23 23.908 270.66 25.086C270.09 26.226 269.805 27.499 269.805 28.905V44.181C269.805 44.979 269.938 45.549 270.204 45.891C270.47 46.195 271.021 46.404 271.857 46.518L273.111 46.689C273.529 46.765 273.738 46.993 273.738 47.373C273.738 47.791 273.51 48 273.054 48H263.364C262.832 48 262.566 47.791 262.566 47.373C262.566 46.993 262.775 46.765 263.193 46.689L263.991 46.575C264.789 46.461 265.302 46.233 265.53 45.891C265.796 45.549 265.929 44.979 265.929 44.181V26.283C265.929 24.421 265.587 23.11 264.903 22.35C264.257 21.59 263.364 21.21 262.224 21.21C261.084 21.21 260.039 21.571 259.089 22.293C258.177 22.977 257.436 23.908 256.866 25.086C256.296 26.226 256.011 27.499 256.011 28.905V44.181C256.011 44.979 256.125 45.549 256.353 45.891C256.619 46.233 257.151 46.442 257.949 46.518L259.488 46.689C259.906 46.765 260.115 46.974 260.115 47.316C260.115 47.772 259.83 48 259.26 48H249.627ZM293.408 13.515C292.61 13.515 291.926 13.23 291.356 12.66C290.824 12.09 290.558 11.368 290.558 10.494C290.558 9.62 290.824 8.917 291.356 8.385C291.926 7.815 292.61 7.53 293.408 7.53C294.206 7.53 294.871 7.815 295.403 8.385C295.935 8.917 296.201 9.62 296.201 10.494C296.201 11.368 295.935 12.09 295.403 12.66C294.871 13.23 294.206 13.515 293.408 13.515ZM288.62 48C288.05 48 287.765 47.791 287.765 47.373C287.765 47.031 288.012 46.803 288.506 46.689L289.19 46.575C290.14 46.423 290.748 46.195 291.014 45.891C291.28 45.549 291.413 44.979 291.413 44.181V25.029C291.413 24.345 291.299 23.889 291.071 23.661C290.881 23.395 290.52 23.224 289.988 23.148L288.791 22.977C288.297 22.939 288.05 22.73 288.05 22.35C288.05 22.046 288.354 21.837 288.962 21.723C290.14 21.533 291.09 21.229 291.812 20.811C292.534 20.393 293.237 19.88 293.921 19.272C294.263 18.93 294.548 18.759 294.776 18.759C295.118 18.759 295.289 18.987 295.289 19.443V44.181C295.289 44.979 295.403 45.549 295.631 45.891C295.859 46.233 296.296 46.442 296.942 46.518L298.367 46.689C298.785 46.765 298.994 46.974 298.994 47.316C298.994 47.772 298.709 48 298.139 48H288.62Z" fill="#99FF00"/>
</svg>
